<svg width="100" height="100" viewBox="0 0 100 100" fill="none" xmlns="http://www.w3.org/2000/svg">
<g clip-path="url(#clip0_2128_552)">
<path d="M99.0099 0H0V99.0099H99.0099V0Z" fill="white" fill-opacity="0.01"/>
<path d="M38.0088 46.3815C37.3994 36.0575 34.9528 30.7119 30.6684 30.3446C23.7505 29.7515 13.1464 41.0596 10.0026 56.9515C6.8589 72.8436 8.41134 84.2269 12.525 84.9954C16.6386 85.7642 22.6159 81.2863 25.4517 81.2863C28.2875 81.2863 38.1163 83.4542 38.1163 79.5275C38.1163 77.5929 38.1163 72.8975 38.1163 62.6465" stroke="#375CA6" stroke-width="5" stroke-linecap="round"/>
<path d="M61.7157 46.6059C62.3028 36.135 64.7538 30.7146 69.069 30.3446C75.9871 29.7515 86.5911 41.0596 89.7348 56.9515C92.8786 72.8436 91.3261 84.2269 87.2125 84.9954C83.0988 85.7642 77.1215 81.2863 74.2859 81.2863C71.45 81.2863 61.6211 83.4542 61.6211 79.5275C61.6211 77.5973 61.6211 72.8548 61.6211 62.6465" stroke="#375CA6" stroke-width="5" stroke-linecap="round"/>
<path d="M42.8244 10.4167V41.4804C42.7335 46.2544 38.75 48.6414 30.8735 48.6414" stroke="#375CA6" stroke-width="5" stroke-linecap="round"/>
<path d="M56.8584 10.4167V41.4804C56.949 46.2544 60.9326 48.6414 68.809 48.6414" stroke="#375CA6" stroke-width="5" stroke-linecap="round"/>
<path d="M31.25 62.6467C39.4902 62.6467 45.7402 60.6898 50 56.7761C54.2904 60.6898 60.5604 62.6467 68.8096 62.6467" stroke="#375CA6" stroke-width="5" stroke-linecap="round" stroke-linejoin="round"/>
</g>
<defs>
<clipPath id="clip0_2128_552">
<rect width="100" height="100" fill="white"/>
</clipPath>
</defs>
</svg>
