<svg width="100" height="100" viewBox="0 0 100 100" fill="none" xmlns="http://www.w3.org/2000/svg">
<path d="M37.8799 78.0256C37.8799 83.1393 37.8799 86.8998 37.8799 89.6963C37.8799 95.151 40.3018 100 49.9998 100C59.698 100 62.1197 95.151 62.1197 89.6963C62.1197 86.8998 62.1197 83.1393 62.1197 78.0256C58.2135 78.5156 54.1652 78.7873 49.9998 78.7873C45.8346 78.7873 41.7861 78.5156 37.8799 78.0256Z" fill="#375CA6"/>
<path d="M96.3636 39.7779C87.2725 24.2135 71.818 0 49.9999 0C28.1817 0 12.7272 24.2135 3.6362 39.7779C-5.45482 55.3445 15.4544 73.3326 49.9999 73.3326C84.5454 73.3328 105.454 55.3445 96.3636 39.7779ZM20.8344 54.5455C16.0225 54.5455 12.1217 50.6445 12.1217 45.8346C12.1217 41.0209 16.0225 37.1219 20.8344 37.1219C25.6444 37.1219 29.5454 41.0211 29.5454 45.8346C29.5454 50.6445 25.6444 54.5455 20.8344 54.5455ZM38.0307 24.9254C38.0307 19.359 42.5425 14.849 48.1071 14.849C53.6698 14.849 58.1817 19.359 58.1817 24.9254C58.1817 30.4883 53.6698 35 48.1071 35C42.5425 35 38.0307 30.4883 38.0307 24.9254ZM55.2272 64.091C51.0848 64.091 47.7272 60.7334 47.7272 56.591C47.7272 52.4486 51.0848 49.091 55.2272 49.091C59.3696 49.091 62.7272 52.4486 62.7272 56.591C62.7272 60.7332 59.3696 64.091 55.2272 64.091ZM82.2282 51.3086C77.8973 50.6074 74.7102 46.4133 75.3993 42.1502C76.0636 38.0504 80.0264 35.8596 84.0036 37.0385C87.7057 38.1375 90.2626 41.8467 89.927 45.5027C89.579 49.2861 86.2409 51.9584 82.2282 51.3086Z" fill="#375CA6"/>
</svg>
