<svg width="100" height="100" viewBox="0 0 100 100" fill="none" xmlns="http://www.w3.org/2000/svg">
<path d="M79.3368 57.825C75.8465 55.7729 73.2654 52.3357 72.1595 48.2672C70.7653 43.1752 67.8513 38.7011 63.8556 35.5172C59.8598 32.3334 54.9981 30.6119 50.0014 30.6115C45.0046 30.6112 40.1427 32.3319 36.1466 35.5152C32.1504 38.6985 29.2358 43.1722 27.841 48.264C26.7357 52.3338 24.1544 55.7723 20.6632 57.8251C15.8953 60.579 12.3073 65.1724 10.6414 70.6551C8.97543 76.1378 9.35909 82.0902 11.713 87.2811C14.0668 92.472 18.2108 96.5042 23.2877 98.5435C28.3645 100.583 33.9858 100.473 38.9888 98.2378C46.0424 95.1563 53.9576 95.1563 61.0112 98.2378C66.0144 100.475 71.6368 100.586 76.7148 98.5471C81.7928 96.5081 85.9378 92.4755 88.2921 87.2837C90.6464 82.0919 91.0297 76.1383 89.3628 70.6549C87.6958 65.1716 84.1063 60.5781 79.3368 57.825ZM69.2308 87.753C67.9423 87.7562 66.6666 87.4828 65.4804 86.9491C65.4593 86.9394 65.4377 86.9299 65.4161 86.9204C55.5429 82.5948 44.4571 82.5948 34.5839 86.9204C34.5623 86.9299 34.5407 86.9394 34.5196 86.9491C32.2435 87.9707 29.6843 88.0235 27.3725 87.0965C25.0607 86.1695 23.1739 84.3338 22.1033 81.9701C21.0327 79.6065 20.8605 76.8962 21.6224 74.4014C22.3843 71.9066 24.0218 69.8187 26.1954 68.5707C26.2123 68.5607 26.2296 68.5508 26.2465 68.5406C29.2994 66.7516 31.9901 64.3417 34.165 61.4487C36.3399 58.5557 37.9562 55.2363 38.9216 51.6801C39.6194 49.1347 41.0768 46.8983 43.0748 45.3071C45.0728 43.716 47.5034 42.8559 50.0015 42.8561C52.4995 42.8564 54.93 43.7169 56.9277 45.3085C58.9254 46.9001 60.3824 49.1368 61.0797 51.6823C62.0451 55.2381 63.6612 58.5571 65.8359 61.4497C68.0105 64.3424 70.7009 66.7519 73.7535 68.5406C73.7704 68.5508 73.7877 68.5608 73.8046 68.5707C75.6867 69.6511 77.1755 71.3667 78.0354 73.446C78.8953 75.5252 79.0772 77.8495 78.5523 80.0508C78.0274 82.2521 76.8257 84.2048 75.1374 85.5998C73.449 86.9949 71.3705 87.7526 69.2308 87.753ZM100 36.7338C100 39.1556 99.3233 41.5229 98.0554 43.5365C96.7876 45.5502 94.9855 47.1196 92.8771 48.0463C90.7687 48.9731 88.4487 49.2156 86.2105 48.7431C83.9723 48.2707 81.9163 47.1045 80.3026 45.392C78.6889 43.6796 77.59 41.4978 77.1448 39.1226C76.6996 36.7474 76.9281 34.2854 77.8014 32.048C78.6747 29.8106 80.1536 27.8982 82.0511 26.5528C83.9486 25.2073 86.1794 24.4892 88.4615 24.4892C89.9768 24.4892 91.4772 24.8059 92.8771 25.4213C94.277 26.0366 95.549 26.9385 96.6205 28.0756C97.6919 29.2126 98.5418 30.5624 99.1217 32.048C99.7016 33.5336 100 35.1258 100 36.7338ZM11.5385 48.9784C9.25637 48.9784 7.02553 48.2603 5.12804 46.9148C3.23055 45.5694 1.75164 43.657 0.878318 41.4196C0.00499945 39.1822 -0.223501 36.7202 0.221713 34.345C0.666928 31.9698 1.76586 29.788 3.37954 28.0756C4.99323 26.3631 7.04918 25.1969 9.28742 24.7245C11.5257 24.252 13.8457 24.4945 15.954 25.4213C18.0624 26.348 19.8645 27.9175 21.1323 29.9311C22.4002 31.9447 23.0769 34.3121 23.0769 36.7338C23.0769 38.3418 22.7785 39.934 22.1986 41.4196C21.6188 42.9052 20.7688 44.255 19.6974 45.3921C18.626 46.5291 17.354 47.431 15.954 48.0463C14.5541 48.6617 13.0537 48.9784 11.5385 48.9784ZM23.0769 12.2446C23.0769 9.82285 23.7536 7.45548 25.0215 5.44187C26.2894 3.42825 28.0914 1.85884 30.1998 0.93207C32.3082 0.00530541 34.6282 -0.237179 36.8664 0.235282C39.1047 0.707743 41.1606 1.87393 42.7743 3.58637C44.388 5.2988 45.4869 7.48058 45.9321 9.8558C46.3774 12.231 46.1489 14.693 45.2755 16.9304C44.4022 19.1678 42.9233 21.0802 41.0258 22.4256C39.1283 23.7711 36.8975 24.4892 34.6154 24.4892C33.1001 24.4892 31.5997 24.1725 30.1998 23.5571C28.7999 22.9418 27.5279 22.0399 26.4565 20.9029C25.385 19.7658 24.5351 18.416 23.9552 16.9304C23.3754 15.4448 23.0769 13.8526 23.0769 12.2446ZM53.8462 12.2446C53.8462 9.82285 54.5229 7.45548 55.7907 5.44187C57.0586 3.42825 58.8607 1.85884 60.969 0.93207C63.0774 0.00530541 65.3974 -0.237179 67.6357 0.235282C69.8739 0.707743 71.9299 1.87393 73.5435 3.58637C75.1572 5.2988 76.2562 7.48058 76.7014 9.8558C77.1466 12.231 76.9181 14.693 76.0448 16.9304C75.1714 19.1678 73.6925 21.0802 71.795 22.4256C69.8975 23.7711 67.6667 24.4892 65.3846 24.4892C63.8694 24.4892 62.3689 24.1725 60.969 23.5571C59.5691 22.9418 58.2971 22.0399 57.2257 20.9029C56.1542 19.7658 55.3043 18.416 54.7245 16.9304C54.1446 15.4448 53.8461 13.8526 53.8462 12.2446Z" fill="#375CA6"/>
</svg>
