<svg width="20" height="20" viewBox="0 0 20 20" fill="none" xmlns="http://www.w3.org/2000/svg">
<path d="M9.16663 1.66663C8.7246 1.66663 8.30068 1.84222 7.98811 2.15478C7.67555 2.46734 7.49996 2.89127 7.49996 3.33329V7.49996H3.33329C2.89127 7.49996 2.46734 7.67555 2.15478 7.98811C1.84222 8.30068 1.66663 8.7246 1.66663 9.16663V10.8333C1.66663 11.75 2.41663 12.5 3.33329 12.5H7.49996V16.6666C7.49996 17.5833 8.24996 18.3333 9.16663 18.3333H10.8333C11.2753 18.3333 11.6992 18.1577 12.0118 17.8451C12.3244 17.5326 12.5 17.1087 12.5 16.6666V12.5H16.6666C17.1087 12.5 17.5326 12.3244 17.8451 12.0118C18.1577 11.6992 18.3333 11.2753 18.3333 10.8333V9.16663C18.3333 8.7246 18.1577 8.30068 17.8451 7.98811C17.5326 7.67555 17.1087 7.49996 16.6666 7.49996H12.5V3.33329C12.5 2.89127 12.3244 2.46734 12.0118 2.15478C11.6992 1.84222 11.2753 1.66663 10.8333 1.66663H9.16663Z" stroke="#D94141" stroke-width="2" stroke-linecap="round" stroke-linejoin="round"/>
</svg>
