<svg width="195" height="195" viewBox="0 0 195 195" fill="none" xmlns="http://www.w3.org/2000/svg">
<path d="M67.0317 120.196L59.833 127.498L44.6907 130.87L48.1872 141.86L46.1559 150.576L40.1759 148.643L33.0665 135.158L29.7949 121.199C32.663 116.714 36.303 112.224 38.3451 107.663C43.193 103.863 45.1213 97.7207 48.4147 91.6432L67.0317 120.196Z" fill="url(#paint0_linear_2262_633)"/>
<path d="M111.177 118.598L116.104 126.295L120.391 146.7L124.73 151.45L132.692 148.503L133.969 135.073C133.969 135.073 131.742 122.108 130.388 116.594C129.034 111.08 116.443 110.143 116.443 110.143L111.177 118.598Z" fill="url(#paint1_linear_2262_633)"/>
<path d="M11.9439 45.3646L19.167 43.8555L30.7857 48.0724L32.7606 60.0053L33.7752 68.5122L42.5773 78.8634L49.7408 83.0587L54.5102 83.0741C54.6199 82.9259 54.7136 82.7767 54.8282 82.6291H63.7359L78.1523 77.1176L94.3238 71.4681L121.115 72.9338L138.562 76.2867L155.689 68.828L167.227 61.1661L177.039 63.1676L172.299 72.4219L181.286 86.2344L178.737 97.7096L164.951 98.0303L160.022 99.199L150.824 95.9571L151.536 104.727L148.533 112.142L151.536 117.513L161.584 125.5L162.899 136.585L155.321 145.492C155.321 145.492 144.656 144.646 148.973 133.096L141.392 125.695L128.536 122.352L123.192 119.056L111.178 121.192H88.4036L82.6349 130.411L86.4915 143.095L86.2332 150.567L79.3107 149.834L71.3265 139.191L66.0805 132.23V122.781L56.2248 113.107L49.863 99.7303C49.863 99.7303 49.8093 99.3552 49.7733 98.7115L49.7411 98.7559C49.7411 98.7559 33.204 90.62 27.1807 78.3757C17.4388 64.6878 29.0142 51.36 15.1611 55.864C11.67 56.9985 7.71316 49.7703 11.9463 45.3692L11.9439 45.3646Z" fill="url(#paint2_linear_2262_633)"/>
<defs>
<linearGradient id="paint0_linear_2262_633" x1="58.5264" y1="90.2448" x2="12.6051" y2="103.39" gradientUnits="userSpaceOnUse">
<stop stop-color="#D94141" stop-opacity="0.8"/>
<stop offset="1" stop-color="#D94141"/>
</linearGradient>
<linearGradient id="paint1_linear_2262_633" x1="128.763" y1="109.162" x2="100.141" y2="116.317" gradientUnits="userSpaceOnUse">
<stop stop-color="#D94141" stop-opacity="0.8"/>
<stop offset="1" stop-color="#D94141"/>
</linearGradient>
<linearGradient id="paint2_linear_2262_633" x1="142.188" y1="41.3232" x2="-7.27558" y2="149.936" gradientUnits="userSpaceOnUse">
<stop stop-color="#D94141" stop-opacity="0.8"/>
<stop offset="1" stop-color="#D94141"/>
</linearGradient>
</defs>
</svg>
