<svg width="90" height="90" viewBox="0 0 90 90" fill="none" xmlns="http://www.w3.org/2000/svg">
<path d="M45 2.8125C36.7949 2.8125 28.9258 6.07198 23.1239 11.8739C17.322 17.6758 14.0625 25.5449 14.0625 33.75C14.0625 65.3625 42.1875 85.8094 43.3687 86.6531C43.8451 86.9923 44.4153 87.1745 45 87.1745C45.5847 87.1745 46.1549 86.9923 46.6312 86.6531C47.8125 85.8094 75.9375 65.3625 75.9375 33.75C75.9375 25.5449 72.678 17.6758 66.8761 11.8739C61.0742 6.07198 53.2051 2.8125 45 2.8125ZM45 47.8125C42.2187 47.8125 39.4999 46.9878 37.1873 45.4425C34.8747 43.8973 33.0723 41.7011 32.0079 39.1315C30.9436 36.5619 30.6651 33.7344 31.2077 31.0065C31.7503 28.2787 33.0896 25.773 35.0563 23.8063C37.023 21.8396 39.5287 20.5003 42.2565 19.9577C44.9844 19.4151 47.8119 19.6936 50.3815 20.7579C52.9511 21.8223 55.1473 23.6247 56.6925 25.9373C58.2378 28.2499 59.0625 30.9687 59.0625 33.75C59.0625 37.4796 57.5809 41.0565 54.9437 43.6937C52.3065 46.3309 48.7296 47.8125 45 47.8125Z" fill="#375CA6"/>
</svg>
