<svg width="195" height="195" viewBox="0 0 195 195" fill="none" xmlns="http://www.w3.org/2000/svg">
<path d="M67.032 120.196L59.8332 127.498L44.6909 130.87L48.1874 141.86L46.1562 150.575L40.1762 148.643L33.0668 135.158L29.7951 121.199C32.6632 116.714 36.3032 112.224 38.3453 107.663C43.1932 103.863 45.1216 97.7206 48.4149 91.6431L67.032 120.196Z" fill="url(#paint0_linear_2226_586)"/>
<path d="M111.178 118.598L116.104 126.295L120.391 146.7L124.73 151.45L132.693 148.503L133.969 135.073C133.969 135.073 131.743 122.108 130.389 116.594C129.034 111.08 116.443 110.143 116.443 110.143L111.178 118.598Z" fill="url(#paint1_linear_2226_586)"/>
<path d="M11.9441 45.3646L19.1672 43.8555L30.786 48.0724L32.7609 60.0053L33.7754 68.5122L42.5775 78.8635L49.7411 83.0587L54.5104 83.0741C54.6201 82.926 54.7138 82.7767 54.8284 82.6291H63.7361L78.1526 77.1177L94.324 71.4681L121.115 72.9338L138.562 76.2867L155.689 68.828L167.227 61.1661L177.039 63.1676L172.3 72.422L181.286 86.2345L178.737 97.7097L164.951 98.0303L160.022 99.199L150.825 95.9571L151.536 104.727L148.533 112.142L151.536 117.513L161.584 125.5L162.899 136.585L155.321 145.493C155.321 145.493 144.656 144.646 148.973 133.096L141.392 125.695L128.536 122.353L123.192 119.056L111.178 121.192H88.4039L82.6351 130.411L86.4918 143.095L86.2334 150.567L79.3109 149.835L71.3267 139.191L66.0807 132.23V122.781L56.2251 113.107L49.8632 99.7304C49.8632 99.7304 49.8096 99.3552 49.7736 98.7115L49.7413 98.7559C49.7413 98.7559 33.2042 90.6201 27.1809 78.3757C17.439 64.6878 29.0145 51.3601 15.1613 55.864C11.6703 56.9985 7.71341 49.7703 11.9465 45.3692L11.9441 45.3646Z" fill="url(#paint2_linear_2226_586)"/>
<circle cx="154.5" cy="140.5" r="13" stroke="#D94141" stroke-width="3"/>
<circle cx="44.5" cy="145.5" r="13" stroke="#D94141" stroke-width="3"/>
<circle cx="125.5" cy="145.5" r="13" stroke="#D94141" stroke-width="3"/>
<circle cx="81.5" cy="145.5" r="13" stroke="#D94141" stroke-width="3"/>
<defs>
<linearGradient id="paint0_linear_2226_586" x1="58.5266" y1="90.2446" x2="12.6053" y2="103.39" gradientUnits="userSpaceOnUse">
<stop stop-color="#5B74A6"/>
<stop offset="1" stop-color="#375CA6"/>
</linearGradient>
<linearGradient id="paint1_linear_2226_586" x1="128.763" y1="109.162" x2="100.141" y2="116.317" gradientUnits="userSpaceOnUse">
<stop stop-color="#5B74A6"/>
<stop offset="1" stop-color="#375CA6"/>
</linearGradient>
<linearGradient id="paint2_linear_2226_586" x1="142.188" y1="41.3232" x2="-7.27534" y2="149.936" gradientUnits="userSpaceOnUse">
<stop stop-color="#5B74A6"/>
<stop offset="1" stop-color="#375CA6"/>
</linearGradient>
</defs>
</svg>
