<svg width="63" height="63" viewBox="0 0 63 63" fill="none" xmlns="http://www.w3.org/2000/svg">
<path d="M21.7828 38.5406L19.4746 40.8819L14.6192 41.9631L15.7404 45.4871L15.089 48.2817L13.1716 47.662L10.892 43.3381L9.84292 38.8623C10.7626 37.4242 11.9297 35.9843 12.5845 34.5219C14.139 33.3035 14.7573 31.3339 15.8133 29.3852L21.7828 38.5406Z" fill="url(#paint0_linear_2093_390)"/>
<path d="M35.9382 38.0282L37.5179 40.4962L38.8926 47.0389L40.2838 48.5621L42.8369 47.6173L43.2462 43.3108C43.2462 43.3108 42.5324 39.1536 42.0982 37.3855C41.664 35.6174 37.6267 35.317 37.6267 35.317L35.9382 38.0282Z" fill="url(#paint1_linear_2093_390)"/>
<path d="M4.11915 14.5461L6.43523 14.0622L10.1608 15.4143L10.794 19.2406L11.1193 21.9683L13.9417 25.2874L16.2387 26.6326L17.7679 26.6375C17.8031 26.59 17.8332 26.5422 17.8699 26.4949H20.7261L25.3487 24.7276L30.5341 22.9161L39.1245 23.3861L44.7189 24.4612L50.2108 22.0696L53.9102 19.6128L57.0565 20.2546L55.5368 23.222L58.4182 27.6509L57.6009 31.3304L53.1806 31.4332L51.6001 31.8079L48.6509 30.7684L48.8791 33.5804L47.916 35.9581L48.8791 37.6802L52.101 40.2412L52.5226 43.7956L50.0927 46.6519C50.0927 46.6519 46.6729 46.3805 48.0572 42.6771L45.6265 40.3037L41.5041 39.2321L39.7907 38.1752L35.9384 38.86H28.6358L26.7861 41.8161L28.0227 45.883L27.9398 48.2789L25.7202 48.0441L23.1601 44.6312L21.4779 42.3994V39.3695L18.3177 36.2675L16.2778 31.9783C16.2778 31.9783 16.2606 31.8581 16.2491 31.6516L16.2387 31.6659C16.2387 31.6659 10.9362 29.0571 9.0048 25.131C5.88108 20.742 9.59272 16.4685 5.15074 17.9127C4.03135 18.2765 2.76258 15.9587 4.11992 14.5476L4.11915 14.5461Z" fill="url(#paint2_linear_2093_390)"/>
<defs>
<linearGradient id="paint0_linear_2093_390" x1="19.0556" y1="28.9368" x2="4.33105" y2="33.1516" gradientUnits="userSpaceOnUse">
<stop stop-color="#5B74A6"/>
<stop offset="1" stop-color="#375CA6"/>
</linearGradient>
<linearGradient id="paint1_linear_2093_390" x1="41.577" y1="35.0026" x2="32.3995" y2="37.2966" gradientUnits="userSpaceOnUse">
<stop stop-color="#5B74A6"/>
<stop offset="1" stop-color="#375CA6"/>
</linearGradient>
<linearGradient id="paint2_linear_2093_390" x1="45.8815" y1="13.2502" x2="-2.04353" y2="48.0767" gradientUnits="userSpaceOnUse">
<stop stop-color="#5B74A6"/>
<stop offset="1" stop-color="#375CA6"/>
</linearGradient>
</defs>
</svg>
