<svg width="1024" height="1024" viewBox="0 0 1024 1024" fill="none" xmlns="http://www.w3.org/2000/svg">
<path d="M340.502 646.671L297.437 690.158L206.852 710.24L227.769 775.698L215.617 827.605L179.843 816.095L137.313 735.781L117.741 652.645C134.899 625.933 156.674 599.189 168.891 572.026C197.892 549.395 209.428 512.811 229.129 476.614L340.502 646.671Z" fill="url(#paint0_linear_2302_586)"/>
<path d="M604.594 637.153L634.065 682.996L659.713 804.522L685.668 832.815L733.302 815.265L740.938 735.274C740.938 735.274 727.62 658.058 719.519 625.217C711.418 592.375 636.095 586.794 636.095 586.794L604.594 637.153Z" fill="url(#paint1_linear_2302_586)"/>
<path d="M10.9541 200.988L54.1646 192L123.671 217.115L135.485 288.186L141.555 338.851L194.211 400.501L237.065 425.487L265.597 425.579C266.253 424.697 266.814 423.808 267.499 422.929H320.787L407.03 390.104L503.772 356.456L664.041 365.186L768.414 385.155L870.875 340.732L939.896 295.099L998.595 307.019L970.242 362.137L1024 444.402L1008.75 512.746L926.283 514.656L896.795 521.616L841.773 502.308L846.031 554.539L828.063 598.704L846.031 630.69L906.141 678.259L914.007 744.28L868.674 797.333C868.674 797.333 804.87 792.293 830.696 723.504L785.347 679.42L708.436 659.515L676.47 639.885L604.598 652.605H468.356L433.846 707.513L456.917 783.051L455.372 827.555L413.96 823.194L366.196 759.801L334.813 718.346V662.067L275.854 604.449L237.796 524.781C237.796 524.781 237.475 522.547 237.26 518.713L237.067 518.978C237.067 518.978 138.138 470.522 102.105 397.596C43.8261 316.073 113.073 236.696 30.2003 263.521C9.31599 270.278 -14.3551 227.227 10.9685 201.015L10.9541 200.988Z" fill="url(#paint2_linear_2302_586)"/>
<defs>
<linearGradient id="paint0_linear_2302_586" x1="289.62" y1="468.285" x2="15.0923" y2="547.217" gradientUnits="userSpaceOnUse">
<stop stop-color="#5B74A6"/>
<stop offset="1" stop-color="#375CA6"/>
</linearGradient>
<linearGradient id="paint1_linear_2302_586" x1="709.795" y1="580.956" x2="538.663" y2="623.921" gradientUnits="userSpaceOnUse">
<stop stop-color="#5B74A6"/>
<stop offset="1" stop-color="#375CA6"/>
</linearGradient>
<linearGradient id="paint2_linear_2302_586" x1="790.106" y1="176.918" x2="-101.283" y2="827.551" gradientUnits="userSpaceOnUse">
<stop stop-color="#5B74A6"/>
<stop offset="1" stop-color="#375CA6"/>
</linearGradient>
</defs>
</svg>
