<svg width="20" height="20" viewBox="0 0 20 20" fill="none" xmlns="http://www.w3.org/2000/svg">
<g clip-path="url(#clip0_2190_430)">
<path d="M7.57605 15.6051C7.57605 16.6279 7.57605 17.38 7.57605 17.9393C7.57605 19.0302 8.06042 20 10 20C11.9397 20 12.424 19.0302 12.424 17.9393C12.424 17.38 12.424 16.6279 12.424 15.6051C11.6428 15.7031 10.8331 15.7575 10 15.7575C9.16699 15.7575 8.3573 15.7031 7.57605 15.6051Z" fill="black"/>
<path d="M19.2727 7.95559C17.4545 4.84269 14.3636 0 10 0C5.63637 0 2.54547 4.84269 0.727264 7.95559C-1.09094 11.0689 3.0909 14.6665 10 14.6665C16.9091 14.6666 21.0909 11.0689 19.2727 7.95559ZM4.16691 10.9091C3.20453 10.9091 2.42437 10.1289 2.42437 9.16691C2.42437 8.20418 3.20453 7.42437 4.16691 7.42437C5.12891 7.42437 5.9091 8.20422 5.9091 9.16691C5.9091 10.1289 5.12891 10.9091 4.16691 10.9091ZM7.60617 4.98508C7.60617 3.8718 8.50852 2.9698 9.62144 2.9698C10.734 2.9698 11.6364 3.8718 11.6364 4.98508C11.6364 6.09766 10.734 7 9.62144 7C8.50852 7 7.60617 6.09766 7.60617 4.98508ZM11.0455 12.8182C10.217 12.8182 9.54547 12.1467 9.54547 11.3182C9.54547 10.4897 10.217 9.8182 11.0455 9.8182C11.8739 9.8182 12.5455 10.4897 12.5455 11.3182C12.5455 12.1466 11.8739 12.8182 11.0455 12.8182ZM16.4457 10.2617C15.5795 10.1215 14.9421 9.28266 15.0799 8.43004C15.2127 7.61008 16.0053 7.17191 16.8007 7.4077C17.5412 7.6275 18.0525 8.36934 17.9854 9.10055C17.9158 9.85723 17.2482 10.3917 16.4457 10.2617Z" fill="black"/>
</g>
<defs>
<clipPath id="clip0_2190_430">
<rect width="20" height="20" fill="white"/>
</clipPath>
</defs>
</svg>
