<svg width="20" height="20" viewBox="0 0 20 20" fill="none" xmlns="http://www.w3.org/2000/svg">
<path d="M15.8674 11.565C15.1693 11.1546 14.6531 10.4671 14.4319 9.65344C14.1531 8.63505 13.5703 7.74021 12.7711 7.10344C11.972 6.46667 10.9996 6.12238 10.0003 6.1223C9.00092 6.12223 8.02855 6.46639 7.22931 7.10304C6.43008 7.73969 5.84716 8.63444 5.56819 9.65279C5.34714 10.4668 4.83087 11.1545 4.13264 11.565C3.17906 12.1158 2.46145 13.0345 2.12827 14.131C1.79509 15.2275 1.87182 16.418 2.34259 17.4562C2.81336 18.4944 3.64216 19.3008 4.65753 19.7087C5.6729 20.1166 6.79717 20.0947 7.79776 19.6476C9.20848 19.0313 10.7915 19.0313 12.2022 19.6476C13.2029 20.0951 14.3274 20.1172 15.343 19.7094C16.3586 19.3016 17.1876 18.4951 17.6584 17.4567C18.1293 16.4184 18.2059 15.2277 17.8726 14.131C17.5392 13.0343 16.8213 12.1156 15.8674 11.565ZM13.8462 17.5506C13.5885 17.5512 13.3333 17.4966 13.0961 17.3898C13.0919 17.3879 13.0875 17.386 13.0832 17.3841C11.1086 16.519 8.89143 16.519 6.91679 17.3841C6.91247 17.386 6.90815 17.3879 6.90392 17.3898C6.44871 17.5941 5.93685 17.6047 5.4745 17.4193C5.01215 17.2339 4.63478 16.8668 4.42066 16.394C4.20654 15.9213 4.1721 15.3792 4.32448 14.8803C4.47685 14.3813 4.80436 13.9637 5.23907 13.7141C5.24245 13.7121 5.24593 13.7102 5.24931 13.7081C5.85988 13.3503 6.39803 12.8683 6.833 12.2897C7.26797 11.7111 7.59124 11.0473 7.78433 10.336C7.92388 9.82693 8.21536 9.37967 8.61496 9.06143C9.01456 8.74319 9.50069 8.57117 10.0003 8.57122C10.4999 8.57127 10.986 8.74339 11.3855 9.06171C11.7851 9.38003 12.0765 9.82735 12.2159 10.3365C12.409 11.0476 12.7322 11.7114 13.1672 12.2899C13.6021 12.8685 14.1402 13.3504 14.7507 13.7081C14.7541 13.7102 14.7575 13.7122 14.7609 13.7141C15.1373 13.9302 15.4351 14.2733 15.6071 14.6892C15.7791 15.105 15.8154 15.5699 15.7105 16.0102C15.6055 16.4504 15.3651 16.841 15.0275 17.12C14.6898 17.399 14.2741 17.5505 13.8462 17.5506ZM20 7.34676C20 7.83111 19.8647 8.30458 19.6111 8.70731C19.3575 9.11003 18.9971 9.42391 18.5754 9.60927C18.1537 9.79462 17.6897 9.84312 17.2421 9.74863C16.7945 9.65413 16.3833 9.4209 16.0605 9.07841C15.7378 8.73592 15.518 8.29957 15.429 7.82452C15.3399 7.34948 15.3856 6.85708 15.5603 6.4096C15.7349 5.96212 16.0307 5.57965 16.4102 5.31056C16.7897 5.04147 17.2359 4.89784 17.6923 4.89784C17.9954 4.89784 18.2954 4.96118 18.5754 5.08425C18.8554 5.20732 19.1098 5.38771 19.3241 5.61511C19.5384 5.84251 19.7084 6.11248 19.8243 6.4096C19.9403 6.70672 20 7.02516 20 7.34676ZM2.30769 9.79568C1.85127 9.79568 1.40511 9.65205 1.02561 9.38296C0.64611 9.11387 0.350327 8.7314 0.175664 8.28392C0.000999891 7.83644 -0.0447001 7.34404 0.0443427 6.869C0.133386 6.39396 0.353172 5.9576 0.675909 5.61511C0.998645 5.27262 1.40984 5.03939 1.85748 4.9449C2.30513 4.8504 2.76913 4.8989 3.19081 5.08425C3.61248 5.26961 3.9729 5.58349 4.22647 5.98621C4.48004 6.38894 4.61539 6.86241 4.61539 7.34676C4.61539 7.66836 4.5557 7.98681 4.43972 8.28392C4.32375 8.58104 4.15377 8.85101 3.93948 9.07841C3.72519 9.30581 3.47079 9.4862 3.19081 9.60927C2.91083 9.73234 2.61074 9.79568 2.30769 9.79568ZM4.61539 2.44892C4.61539 1.96457 4.75073 1.4911 5.0043 1.08837C5.25787 0.685651 5.61829 0.371767 6.03996 0.186414C6.46164 0.00106108 6.92564 -0.0474357 7.37329 0.0470564C7.82093 0.141549 8.23213 0.374785 8.55486 0.717273C8.8776 1.05976 9.09739 1.49612 9.18643 1.97116C9.27547 2.4462 9.22977 2.9386 9.05511 3.38608C8.88044 3.83356 8.58466 4.21603 8.20516 4.48512C7.82566 4.75421 7.3795 4.89784 6.92308 4.89784C6.62003 4.89784 6.31994 4.8345 6.03996 4.71143C5.75998 4.58836 5.50558 4.40797 5.29129 4.18057C5.077 3.95317 4.90702 3.6832 4.79105 3.38608C4.67507 3.08897 4.61538 2.77052 4.61539 2.44892ZM10.7692 2.44892C10.7692 1.96457 10.9046 1.4911 11.1581 1.08837C11.4117 0.685651 11.7721 0.371767 12.1938 0.186414C12.6155 0.00106108 13.0795 -0.0474357 13.5271 0.0470564C13.9748 0.141549 14.386 0.374785 14.7087 0.717273C15.0314 1.05976 15.2512 1.49612 15.3403 1.97116C15.4293 2.4462 15.3836 2.9386 15.209 3.38608C15.0343 3.83356 14.7385 4.21603 14.359 4.48512C13.9795 4.75421 13.5333 4.89784 13.0769 4.89784C12.7739 4.89784 12.4738 4.8345 12.1938 4.71143C11.9138 4.58836 11.6594 4.40797 11.4451 4.18057C11.2308 3.95317 11.0609 3.6832 10.9449 3.38608C10.8289 3.08897 10.7692 2.77052 10.7692 2.44892Z" fill="black"/>
</svg>
