<svg width="100" height="100" viewBox="0 0 100 100" fill="none" xmlns="http://www.w3.org/2000/svg">
<path d="M12.2222 47.2918C12.2222 33.9683 12.2222 27.3067 13.7952 25.0655C15.3681 22.8244 21.6318 20.6803 34.1593 16.3921L36.546 15.5752C43.0763 13.3398 46.3413 12.2222 49.7222 12.2222C53.103 12.2222 56.368 13.3398 62.8984 15.5752L65.2851 16.3921C77.8126 20.6803 84.0763 22.8244 85.6492 25.0655C87.2222 27.3067 87.2222 33.9683 87.2222 47.2918C87.2222 49.3038 87.2222 51.4863 87.2222 53.853C87.2222 77.3447 69.5597 88.7451 58.478 93.5859C55.4722 94.8988 53.9692 95.5555 49.7222 95.5555C45.4751 95.5555 43.9722 94.8988 40.9662 93.5859C29.8845 88.7451 12.2222 77.3447 12.2222 53.853C12.2222 51.4863 12.2222 49.3038 12.2222 47.2918Z" fill="#35528C" fill-opacity="0.3"/>
<path d="M43.0175 35.224C45.2519 35.224 45.6824 34.7686 50 34.7686C54.3178 34.7686 54.748 35.224 56.9825 35.224C58.8445 35.224 64.4308 30.6671 67.2238 30.6671C70.0168 30.6671 73.2753 32.3077 73.2753 37.0473V42.5157C73.2694 43.9513 72.7479 48.3517 70.7063 47.1757C73.9496 51.0087 73.275 55.6961 73.2753 59.8334C73.2753 71.2265 57.9135 74.4167 50 74.4167C42.0864 74.4167 26.7248 71.2265 26.7248 59.8334C26.7248 55.6961 26.0505 51.0087 29.2935 47.1757C27.2521 48.3517 26.7304 43.9513 26.7248 42.5157V37.047C26.7248 32.3074 29.9833 30.6667 32.7763 30.6667C35.5693 30.6667 41.1555 35.224 43.0175 35.224Z" fill="#7C8EB2"/>
<path d="M41.2974 51.2656C39.8716 51.2656 38.9211 52.1917 38.4398 52.9687C37.9377 53.7792 37.6986 54.7618 37.6986 55.7319C37.6986 56.7017 37.9377 57.6843 38.4398 58.4949C38.9211 59.2719 39.8716 60.1979 41.2974 60.1979C42.7232 60.1979 43.6737 59.2719 44.155 58.4949C44.657 57.6843 44.8962 56.7017 44.8962 55.7319C44.8962 54.7618 44.657 53.7792 44.155 52.9687C43.6737 52.1917 42.7232 51.2656 41.2974 51.2656Z" fill="#375CA6"/>
<path d="M55.9398 52.9687C56.421 52.1917 57.3716 51.2656 58.7972 51.2656C60.2232 51.2656 61.1737 52.1917 61.655 52.9687C62.1569 53.7792 62.3961 54.7618 62.3961 55.7319C62.3961 56.7017 62.1569 57.6843 61.655 58.4949C61.1737 59.2719 60.2232 60.1979 58.7972 60.1979C57.3716 60.1979 56.421 59.2719 55.9398 58.4949C55.4375 57.6843 55.1984 56.7017 55.1984 55.7319C55.1984 54.7618 55.4375 53.7792 55.9398 52.9687Z" fill="#375CA6"/>
<path fill-rule="evenodd" clip-rule="evenodd" d="M47.6031 60.0659C48.339 59.7806 49.2073 59.6511 50.0566 59.6511C50.9062 59.6511 51.7742 59.7806 52.5104 60.0659C52.8712 60.2056 53.3128 60.4261 53.7015 60.7825C54.0921 61.1401 54.5964 61.8022 54.5964 62.7501C54.5964 63.698 54.0921 64.3601 53.7015 64.7177C53.3128 65.0741 52.8712 65.2946 52.5104 65.4343C51.7742 65.7195 50.9062 65.849 50.0566 65.849C49.2073 65.849 48.339 65.7195 47.6031 65.4343C47.2423 65.2946 46.8007 65.0741 46.4116 64.7177C46.0214 64.3601 45.5171 63.698 45.5171 62.7501C45.5171 61.8022 46.0214 61.1401 46.4116 60.7825C46.8007 60.4261 47.2423 60.2056 47.6031 60.0659Z" fill="#375CA6"/>
<path d="M67.1016 58.0105C67.1016 56.8024 68.081 55.823 69.2891 55.823C70.1515 55.823 71.1855 56.0196 72.1491 56.2567C73.1545 56.504 74.2474 56.8377 75.2889 57.1938C77.2836 57.876 79.3991 58.7458 80.3549 59.363C81.3696 60.0183 81.661 61.3725 81.0056 62.3872C80.3502 63.4022 78.996 63.6936 77.9813 63.0382C77.5257 62.744 75.8775 62.0189 73.8735 61.3337C72.9159 61.0062 71.9508 60.7134 71.1038 60.5048C70.2151 60.2864 69.6023 60.198 69.2891 60.198C68.081 60.198 67.1016 59.2186 67.1016 58.0105Z" fill="#375CA6"/>
<path d="M67.4064 63.1145C66.198 63.1145 65.2189 64.0939 65.2189 65.302C65.2189 66.5101 66.198 67.4895 67.4064 67.4895C68.0078 67.4895 69.0094 67.8255 70.2653 68.4893C71.2628 69.0164 72.1777 69.6137 72.8932 70.0807C73.0277 70.1685 73.1563 70.2525 73.2759 70.3298C74.2909 70.9851 75.6448 70.6938 76.3005 69.6788C76.9558 68.664 76.6645 67.3098 75.6495 66.6545C75.5529 66.592 75.4427 66.52 75.3202 66.4401C74.6132 65.9778 73.5042 65.2527 72.3093 64.6213C70.9781 63.9178 69.157 63.1145 67.4064 63.1145Z" fill="#375CA6"/>
<path d="M26.1281 61.3337C24.124 62.0189 22.476 62.744 22.0204 63.0382C21.0055 63.6936 19.6515 63.4022 18.996 62.3872C18.3406 61.3725 18.632 60.0183 19.6469 59.363C20.6025 58.7458 22.7179 57.876 24.7126 57.1938C25.7543 56.8377 26.8472 56.504 27.8526 56.2567C28.8162 56.0196 29.8501 55.823 30.7127 55.823C31.9208 55.823 32.9002 56.8024 32.9002 58.0105C32.9002 59.2186 31.9208 60.198 30.7127 60.198C30.3993 60.198 29.7866 60.2864 28.8978 60.5048C28.0509 60.7134 27.0857 61.0062 26.1281 61.3337Z" fill="#375CA6"/>
<path d="M26.7257 70.3298C26.8457 70.2522 26.9735 70.1688 27.1084 70.0807C27.824 69.6137 28.7389 69.0164 29.7364 68.4893C30.9924 67.8255 31.994 67.4895 32.5954 67.4895C33.8036 67.4895 34.7829 66.5101 34.7829 65.302C34.7829 64.0939 33.8036 63.1145 32.5954 63.1145C30.8447 63.1145 29.0237 63.9178 27.6924 64.6213C26.4974 65.2527 25.3885 65.9778 24.6815 66.4401C24.5594 66.5197 24.4487 66.5923 24.3522 66.6545C23.3373 67.3098 23.0459 68.664 23.7014 69.6788C24.3568 70.6938 25.7109 70.9851 26.7257 70.3298Z" fill="#375CA6"/>
</svg>
