<svg width="30" height="30" viewBox="0 0 30 30" fill="none" xmlns="http://www.w3.org/2000/svg">
<path d="M3.91323 26.0868C6.57508 28.736 10.3418 28.7109 13.2422 25.8106L17.0842 21.9559L21.9685 17.0842L25.8105 13.2422C28.7108 10.3418 28.736 6.57504 26.0867 3.91323C23.425 1.26396 19.6582 1.2765 16.7578 4.17686L12.9157 8.03154L8.03153 12.9157L4.18944 16.7452C1.28908 19.6582 1.26396 23.425 3.91323 26.0868ZM21.981 12.6897L17.2977 8.01895C17.0215 7.74273 16.7452 7.51671 16.469 7.34095L18.1641 5.63336C20.1855 3.61189 22.8348 3.33568 24.7558 5.23157C26.6894 7.14005 26.388 9.81445 24.3666 11.8234L22.659 13.531C22.4832 13.2547 22.2573 12.9785 21.981 12.6897ZM16.1426 9.53823L20.4618 13.8574C21.1775 14.5731 21.1021 15.1004 20.3488 15.8412L15.8412 20.3488C15.1004 21.1021 14.5731 21.1774 13.8574 20.4618L9.53823 16.1426C8.82251 15.4269 8.89789 14.887 9.65121 14.1462L14.1588 9.65121C14.8995 8.89789 15.4269 8.82252 16.1426 9.53823ZM14.9875 13.5938C15.6027 13.5938 16.0547 13.1166 16.0547 12.5391C16.0798 11.9615 15.5901 11.4718 15 11.4718C14.4098 11.4718 13.9453 11.9615 13.9453 12.5642C13.9453 13.1041 14.435 13.5938 14.9875 13.5938ZM12.5767 16.0547C13.1418 16.0547 13.6189 15.5524 13.6189 15.0125C13.6189 14.4099 13.1418 13.9327 12.5642 13.9327C11.9615 13.9327 11.4969 14.4099 11.4969 15C11.4969 15.5776 11.9489 16.0547 12.5767 16.0547ZM17.4358 16.0547C18.0259 16.0547 18.5156 15.565 18.5031 14.9875C18.5031 14.4099 18.0385 13.9327 17.4233 13.9327C16.8708 13.9327 16.3812 14.4224 16.3812 14.9623C16.3812 15.565 16.8457 16.0547 17.4358 16.0547ZM15 18.503C15.5901 18.503 16.0547 18.0259 16.0547 17.4232C16.0547 16.8834 15.5901 16.3811 15.0126 16.3811C14.3973 16.3811 13.9327 16.8582 13.9327 17.4358C13.9327 18.0259 14.3973 18.503 15 18.503ZM5.24415 24.7558C3.31055 22.8474 3.61189 20.1856 5.63335 18.1641L7.34094 16.4564C7.51676 16.7452 7.74272 17.0215 8.01894 17.2977L12.7023 21.981C12.9785 22.2573 13.2547 22.4832 13.531 22.6591L11.836 24.3666C9.81444 26.3756 7.16517 26.6643 5.24415 24.7558Z" fill="#F2F2F2"/>
</svg>
