<svg width="80" height="80" viewBox="0 0 80 80" fill="none" xmlns="http://www.w3.org/2000/svg">
<path d="M63.3334 63.3333C68.8562 63.3333 73.3334 58.8561 73.3334 53.3333C73.3334 47.8104 68.8562 43.3333 63.3334 43.3333C57.8105 43.3333 53.3334 47.8104 53.3334 53.3333C53.3334 58.8561 57.8105 63.3333 63.3334 63.3333Z" fill="#375CA6"/>
<path d="M40 4.16675C41.3806 4.16675 42.5 5.28605 42.5 6.66675V7.50485C42.8706 7.51045 43.187 7.52258 43.482 7.54868C49.516 8.08225 54.2986 12.8652 54.8323 18.899C54.881 19.4505 54.881 20.0753 54.881 20.993V25.0701C54.881 38.8114 43.7413 49.9511 30 49.9511C15.7326 49.9511 4.16667 38.3851 4.16667 24.1177L4.16663 20.9931C4.16653 20.0754 4.16647 19.4505 4.21523 18.899C4.7488 12.8652 9.53177 8.08225 15.5656 7.54868C16.0845 7.50278 16.6683 7.50015 17.5 7.50005V6.66675C17.5 5.28605 18.6193 4.16675 20 4.16675C21.3807 4.16675 22.5 5.28605 22.5 6.66675V13.3334C22.5 14.7141 21.3807 15.8334 20 15.8334C18.6193 15.8334 17.5 14.7141 17.5 13.3334V12.5001C16.622 12.5007 16.2797 12.505 16.006 12.5292C12.3857 12.8494 9.51593 15.7191 9.1958 19.3394C9.1691 19.6414 9.16667 20.0268 9.16667 21.1231V24.1177C9.16667 35.6237 18.4941 44.9511 30 44.9511C40.98 44.9511 49.881 36.0501 49.881 25.0701V21.1231C49.881 20.0268 49.8786 19.6414 49.8516 19.3394C49.5316 15.7191 46.662 12.8494 43.0416 12.5292C42.9006 12.5167 42.7413 12.5096 42.5 12.5055V13.3334C42.5 14.7141 41.3806 15.8334 40 15.8334C38.6193 15.8334 37.5 14.7141 37.5 13.3334V6.66675C37.5 5.28605 38.6193 4.16675 40 4.16675Z" fill="#5B74A6"/>
<path opacity="0.5" d="M27.5 49.8321V56.6674C27.5 67.2531 36.0813 75.8341 46.6667 75.8341H49.608C55.6507 75.8341 60.9187 72.5294 63.7087 67.6407C64.5313 66.1987 64.9407 64.6547 65.14 63.1711C64.554 63.2781 63.9503 63.3341 63.3333 63.3341C62.2163 63.3341 61.142 63.1507 60.139 62.8127C59.9953 63.7031 59.7533 64.4834 59.366 65.1624C57.4297 68.5557 53.7833 70.8341 49.608 70.8341H46.6667C38.8427 70.8341 32.5 64.4914 32.5 56.6674V49.8274C31.6778 49.9097 30.8438 49.9517 30 49.9517C29.1566 49.9517 28.3227 49.9111 27.5 49.8321Z" fill="#0D0D0D"/>
</svg>
