<svg width="30" height="30" viewBox="0 0 30 30" fill="none" xmlns="http://www.w3.org/2000/svg">
<path d="M17.5 27.5H16.25C14.2609 27.5 12.3532 26.7098 10.9467 25.3033C9.54018 23.8968 8.75 21.9891 8.75 20V15C8.75 14.6685 8.8817 14.3505 9.11612 14.1161C9.35054 13.8817 9.66848 13.75 10 13.75C10.3315 13.75 10.6495 13.8817 10.8839 14.1161C11.1183 14.3505 11.25 14.6685 11.25 15V20C11.25 21.3261 11.7768 22.5979 12.7145 23.5355C13.6521 24.4732 14.9239 25 16.25 25H17.5C18.8261 25 20.0978 24.4732 21.0355 23.5355C21.9732 22.5979 22.5 21.3261 22.5 20V13.75C22.5 13.4185 22.6317 13.1005 22.8661 12.8661C23.1005 12.6317 23.4185 12.5 23.75 12.5C24.0815 12.5 24.3995 12.6317 24.6339 12.8661C24.8683 13.1005 25 13.4185 25 13.75V20C25 21.9891 24.2098 23.8968 22.8033 25.3033C21.3968 26.7098 19.4891 27.5 17.5 27.5Z" fill="white"/>
<path d="M27.5 11.25C27.5 11.9917 27.2801 12.7167 26.868 13.3334C26.456 13.9501 25.8703 14.4307 25.1851 14.7146C24.4998 14.9984 23.7458 15.0727 23.0184 14.928C22.291 14.7833 21.6228 14.4261 21.0984 13.9017C20.5739 13.3772 20.2167 12.709 20.0721 11.9816C19.9274 11.2542 20.0016 10.5002 20.2855 9.81495C20.5693 9.12973 21.0499 8.54406 21.6666 8.13201C22.2833 7.71995 23.0083 7.50002 23.75 7.50002C24.7446 7.50002 25.6984 7.8951 26.4017 8.59837C27.1049 9.30163 27.5 10.2555 27.5 11.25ZM16.925 10.175L17.5 5.27502C17.5358 4.92831 17.4986 4.57795 17.391 4.24644C17.2834 3.91493 17.1076 3.60959 16.875 3.35002C16.6407 3.08335 16.3523 2.86962 16.0291 2.72306C15.7058 2.5765 15.355 2.50047 15 2.50002H13.75C13.4185 2.50002 13.1005 2.63171 12.8661 2.86613C12.6317 3.10055 12.5 3.4185 12.5 3.75002C12.5 4.08154 12.6317 4.39948 12.8661 4.6339C13.1005 4.86832 13.4185 5.00002 13.75 5.00002H15L14.4375 9.88752C14.3023 10.9644 13.775 11.9536 12.9564 12.6662C12.1377 13.3788 11.0852 13.7646 10 13.75C8.91479 13.7646 7.86226 13.3788 7.04363 12.6662C6.22499 11.9536 5.69768 10.9644 5.5625 9.88752L5 5.00002H6.25C6.58152 5.00002 6.89946 4.86832 7.13388 4.6339C7.3683 4.39948 7.5 4.08154 7.5 3.75002C7.5 3.4185 7.3683 3.10055 7.13388 2.86613C6.89946 2.63171 6.58152 2.50002 6.25 2.50002H5C4.64293 2.49869 4.28972 2.57386 3.96414 2.72048C3.63856 2.8671 3.34816 3.08176 3.1125 3.35002C2.8821 3.61062 2.70863 3.91643 2.60316 4.2479C2.49769 4.57937 2.46256 4.9292 2.5 5.27502L3.0625 10.175C3.26854 11.8639 4.09021 13.4175 5.37023 14.5384C6.65024 15.6593 8.29868 16.2687 10 16.25C11.6992 16.2656 13.3446 15.6548 14.6219 14.5342C15.8993 13.4136 16.7192 11.8618 16.925 10.175Z" fill="white"/>
</svg>
