<svg width="195" height="195" viewBox="0 0 195 195" fill="none" xmlns="http://www.w3.org/2000/svg">
<path d="M68.9709 120.196L61.8813 127.498L46.9684 130.87L50.4119 141.86L48.4114 150.575L42.522 148.643L35.5204 135.158L32.2983 121.199C35.1229 116.714 38.7078 112.224 40.7189 107.663C45.4934 103.863 47.3925 97.7206 50.6359 91.6431L68.9709 120.196Z" fill="url(#paint0_linear_2262_701)"/>
<path d="M112.447 118.598L117.299 126.295L121.522 146.7L125.795 151.45L133.636 148.503L134.894 135.073C134.894 135.073 132.701 122.108 131.367 116.594C130.034 111.08 117.633 110.143 117.633 110.143L112.447 118.598Z" fill="url(#paint1_linear_2262_701)"/>
<path d="M14.7177 45.3646L21.8313 43.8555L33.274 48.0724L35.219 60.0053L36.2182 68.5122L44.8869 78.8634L51.9419 83.0587L56.639 83.0741C56.7471 82.9259 56.8394 82.7767 56.9522 82.6291H65.7249L79.923 77.1176L95.8494 71.4681L122.234 72.9338L139.417 76.2867L156.285 68.828L167.648 61.1661L177.311 63.1676L172.644 72.4219L181.494 86.2344L178.983 97.7096L165.407 98.0303L160.552 99.199L151.494 95.9571L152.195 104.727L149.237 112.142L152.195 117.513L162.091 125.5L163.386 136.585L155.923 145.492C155.923 145.492 145.419 144.646 149.67 133.096L142.205 125.695L129.543 122.352L124.28 119.056L112.448 121.192H90.0189L84.3376 130.411L88.1358 143.095L87.8814 150.567L81.0638 149.834L73.2006 139.191L68.034 132.23V122.781L58.3277 113.107L52.0622 99.7303C52.0622 99.7303 52.0094 99.3552 51.9739 98.7115L51.9422 98.7559C51.9422 98.7559 35.6557 90.62 29.7236 78.3757C20.1293 64.6878 31.5294 51.36 17.8861 55.864C14.448 56.9985 10.5511 49.7703 14.72 45.3692L14.7177 45.3646Z" fill="url(#paint2_linear_2262_701)"/>
<path d="M166.894 140.5C166.894 147.716 161.143 153.5 154.129 153.5C147.115 153.5 141.364 147.716 141.364 140.5C141.364 133.284 147.115 127.5 154.129 127.5C161.143 127.5 166.894 133.284 166.894 140.5Z" stroke="#D94141" stroke-width="5"/>
<path d="M140.303 144.5C140.303 151.716 134.552 157.5 127.538 157.5C120.524 157.5 114.773 151.716 114.773 144.5C114.773 137.284 120.524 131.5 127.538 131.5C134.552 131.5 140.303 137.284 140.303 144.5Z" stroke="#D94141" stroke-width="5"/>
<path d="M96.9698 144.5C96.9698 151.716 91.2188 157.5 84.2046 157.5C77.1905 157.5 71.4395 151.716 71.4395 144.5C71.4395 137.284 77.1905 131.5 84.2046 131.5C91.2188 131.5 96.9698 137.284 96.9698 144.5Z" stroke="#D94141" stroke-width="5"/>
<path d="M57.5757 144.5C57.5757 151.716 51.8247 157.5 44.8106 157.5C37.7964 157.5 32.0454 151.716 32.0454 144.5C32.0454 137.284 37.7964 131.5 44.8106 131.5C51.8247 131.5 57.5757 137.284 57.5757 144.5Z" stroke="#D94141" stroke-width="5"/>
<path d="M191.515 81C191.515 96.7762 178.93 109.5 163.485 109.5C148.04 109.5 135.455 96.7762 135.455 81C135.455 65.2238 148.04 52.5 163.485 52.5C178.93 52.5 191.515 65.2238 191.515 81Z" stroke="#D94141" stroke-width="5"/>
<path d="M54.6212 60C54.6212 74.6717 42.9176 86.5 28.5606 86.5C14.2036 86.5 2.5 74.6717 2.5 60C2.5 45.3283 14.2036 33.5 28.5606 33.5C42.9176 33.5 54.6212 45.3283 54.6212 60Z" stroke="#D94141" stroke-width="5"/>
<defs>
<linearGradient id="paint0_linear_2262_701" x1="60.5945" y1="90.2446" x2="15.2657" y2="103.023" gradientUnits="userSpaceOnUse">
<stop stop-color="#5B74A6"/>
<stop offset="1" stop-color="#375CA6"/>
</linearGradient>
<linearGradient id="paint1_linear_2262_701" x1="129.767" y1="109.162" x2="101.529" y2="116.114" gradientUnits="userSpaceOnUse">
<stop stop-color="#5B74A6"/>
<stop offset="1" stop-color="#375CA6"/>
</linearGradient>
<linearGradient id="paint2_linear_2262_701" x1="142.988" y1="41.3232" x2="-5.75646" y2="147.776" gradientUnits="userSpaceOnUse">
<stop stop-color="#5B74A6"/>
<stop offset="1" stop-color="#375CA6"/>
</linearGradient>
</defs>
</svg>
