<svg width="90" height="90" viewBox="0 0 90 90" fill="none" xmlns="http://www.w3.org/2000/svg">
<path fill-rule="evenodd" clip-rule="evenodd" d="M12.6657 19.0593C11.25 21.0763 11.25 27.0718 11.25 39.0629V44.968C11.25 66.1105 27.1461 76.3709 37.1196 80.7276C39.825 81.9092 41.1776 82.5002 45 82.5002V7.50024C41.9573 7.50024 39.0187 8.50614 33.1414 10.5179L30.9934 11.2532C19.7187 15.1126 14.0814 17.0423 12.6657 19.0593Z" fill="#375CA6"/>
<path opacity="0.5" d="M78.75 44.968V39.0629C78.75 27.0718 78.75 21.0763 77.3344 19.0593C75.9187 17.0423 70.2814 15.1126 59.0066 11.2532L56.8586 10.5179C50.9813 8.50614 48.0427 7.50024 45 7.50024V82.5002C48.8224 82.5002 50.175 81.9092 52.8803 80.7276C62.8538 76.3709 78.75 66.1105 78.75 44.968Z" fill="#375CA6"/>
<mask id="mask0_56_250" style="mask-type:alpha" maskUnits="userSpaceOnUse" x="22" y="22" width="46" height="46">
<mask id="path-3-inside-1_56_250" fill="white">
<path d="M45.2223 23.9702L44.5584 24.8814C44.5584 24.8814 43.2585 26.6638 41.9534 28.8145C41.3009 29.8899 40.6438 31.0572 40.1409 32.1638C39.638 33.2702 39.265 34.2897 39.265 35.2467C39.265 38.527 41.942 41.2042 45.2223 41.2042C48.503 41.2042 51.1799 38.527 51.1799 35.2468C51.1799 34.2898 50.807 33.2703 50.3041 32.1639C49.8011 31.0574 49.1473 29.89 48.4948 28.8146C47.1896 26.6639 45.8866 24.8815 45.8866 24.8815L45.2224 23.9703L45.2223 23.9702ZM45.2223 26.8511C45.6484 27.4534 46.1583 28.1336 47.0895 29.668C47.721 30.7084 48.349 31.8316 48.8091 32.8437C49.2692 33.8561 49.5373 34.7854 49.5373 35.2467C49.5373 36.4798 49.0261 37.5869 48.2038 38.3714C48.3543 37.9995 48.4378 37.5933 48.4378 37.1675C48.4378 35.3924 45.2236 30.9832 45.2236 30.9832C45.2236 30.9832 42.0093 35.3924 42.0093 37.1675C42.0093 37.5947 42.0932 38.0018 42.2444 38.3746C41.4202 37.5899 40.9075 36.4814 40.9075 35.2468C40.9075 34.7855 41.1789 33.8562 41.639 32.8438C42.099 31.8317 42.7271 30.7085 43.3585 29.6681C44.2896 28.1338 44.7964 27.4537 45.2224 26.8512L45.2223 26.8511ZM27.8314 29.4755L27.5426 30.5631C27.5426 30.5631 26.9722 32.6962 26.5322 35.1729C26.3123 36.4113 26.1234 37.7385 26.0541 38.952C25.985 40.1656 26.0068 41.2486 26.3525 42.1407C27.5376 45.1996 30.9996 46.7298 34.0584 45.5447C37.1173 44.3594 38.6472 40.8942 37.4622 37.8356C37.1166 36.9432 36.3996 36.132 35.5309 35.2819C34.6622 34.432 33.6278 33.5786 32.6309 32.8117C30.6367 31.2781 28.7808 30.085 28.7808 30.085L27.8312 29.4754L27.8314 29.4755ZM62.524 29.4755L61.5742 30.085C61.5742 30.085 59.7184 31.2781 57.7245 32.8118C56.7275 33.5788 55.693 34.432 54.8242 35.282C53.9555 36.1321 53.2419 36.9433 52.8962 37.8357C51.7112 40.8943 53.2379 44.3595 56.2967 45.5448C59.3556 46.7299 62.8208 45.1997 64.0059 42.1408C64.3517 41.2487 64.3702 40.1656 64.301 38.9521C64.2319 37.7386 64.0431 36.4115 63.8231 35.173C63.3831 32.6963 62.8125 30.5632 62.8125 30.5632L62.5238 29.4754L62.524 29.4755ZM61.4846 32.1606C61.6641 32.8757 61.8924 33.6939 62.2064 35.4617C62.4191 36.6602 62.5984 37.9352 62.6617 39.0452C62.725 40.1553 62.6393 41.1173 62.4727 41.5475C62.0274 42.6967 61.151 43.544 60.1015 43.9785C60.3753 43.6863 60.5994 43.3387 60.7529 42.9425C61.3943 41.2871 59.99 36.0146 59.99 36.0146C59.99 36.0146 55.3997 38.9645 54.7585 40.6196C54.6047 41.0165 54.5359 41.425 54.5417 41.8259C54.0579 40.797 53.9809 39.5794 54.4265 38.4291C54.5933 37.9991 55.1783 37.234 55.973 36.4564C56.7677 35.6786 57.7607 34.8565 58.7254 34.1144C60.1497 33.0188 60.8708 32.5675 61.4846 32.1606ZM28.8741 32.1638C29.4891 32.5716 30.2074 33.0203 31.6299 34.1144C32.5947 34.8565 33.5878 35.6787 34.3825 36.4564C35.1772 37.234 35.762 37.9991 35.9286 38.4291C36.3741 39.5789 36.2975 40.7962 35.8144 41.8248C35.8199 41.4242 35.7509 41.0162 35.5973 40.6198C34.9561 38.9646 30.3658 36.0147 30.3658 36.0147C30.3658 36.0147 28.9617 41.2872 29.6031 42.9425C29.7567 43.3387 29.9808 43.6865 30.2548 43.9787C29.2049 43.5443 28.3282 42.697 27.8828 41.5474C27.7161 41.1172 27.6304 40.1552 27.6936 39.0451C27.7569 37.9351 27.9395 36.66 28.1524 35.4616C28.466 33.6954 28.6944 32.8799 28.8742 32.1637L28.8741 32.1638ZM45.0718 42.9207C41.2347 42.9207 38.1012 45.4233 37.3948 48.7818C35.383 49.5371 33.5871 50.5159 32.3227 51.7943C30.9589 53.1731 30.1155 54.8564 30.1155 56.6738C30.1155 59.3857 31.9586 61.7344 34.6968 63.3532C37.4349 64.972 41.1277 65.9354 45.184 65.9354C49.2404 65.9354 52.9175 64.973 55.6425 63.3532C58.3675 61.7334 60.198 59.3823 60.198 56.6739C60.198 54.8399 59.3423 53.1417 57.9586 51.7529C56.6742 50.4633 54.8477 49.4787 52.8001 48.7274C52.0636 45.3881 48.8878 42.9208 45.0717 42.9208L45.0718 42.9207ZM45.0718 44.5631C48.332 44.5631 50.9288 46.7111 51.3277 49.3914L51.4013 49.8885L51.8795 50.0496C53.9396 50.7432 55.6397 51.752 56.7943 52.911C57.9488 54.07 58.5556 55.3456 58.5556 56.6742C58.5556 57.9864 57.9553 59.2561 56.84 60.3813C57.1608 59.7128 57.3338 59.0049 57.3338 58.2715C57.3338 56.0523 54.5558 52.5846 49.4663 51.2627C49.4815 51.1247 49.4892 50.9848 49.4892 50.8431C49.4892 48.5954 47.5489 46.7729 45.1555 46.7729C42.762 46.7729 40.8216 48.5954 40.8216 50.8431C40.8216 50.9787 40.8291 51.1125 40.8427 51.2446C35.7254 52.5565 32.978 56.0619 32.978 58.2717H32.9778C32.9778 58.9968 33.148 59.6969 33.4641 60.3585C32.3547 59.2385 31.7581 57.977 31.7581 56.6745C31.7581 55.3601 32.3538 54.099 33.4905 52.9497C34.6272 51.8002 36.3016 50.7965 38.3281 50.0977L38.8029 49.9335L38.8737 49.4331C39.2537 46.7219 41.7948 44.5631 45.0717 44.5631H45.0718Z"/>
</mask>
<path d="M45.2223 23.9702L44.5584 24.8814C44.5584 24.8814 43.2585 26.6638 41.9534 28.8145C41.3009 29.8899 40.6438 31.0572 40.1409 32.1638C39.638 33.2702 39.265 34.2897 39.265 35.2467C39.265 38.527 41.942 41.2042 45.2223 41.2042C48.503 41.2042 51.1799 38.527 51.1799 35.2468C51.1799 34.2898 50.807 33.2703 50.3041 32.1639C49.8011 31.0574 49.1473 29.89 48.4948 28.8146C47.1896 26.6639 45.8866 24.8815 45.8866 24.8815L45.2224 23.9703L45.2223 23.9702ZM45.2223 26.8511C45.6484 27.4534 46.1583 28.1336 47.0895 29.668C47.721 30.7084 48.349 31.8316 48.8091 32.8437C49.2692 33.8561 49.5373 34.7854 49.5373 35.2467C49.5373 36.4798 49.0261 37.5869 48.2038 38.3714C48.3543 37.9995 48.4378 37.5933 48.4378 37.1675C48.4378 35.3924 45.2236 30.9832 45.2236 30.9832C45.2236 30.9832 42.0093 35.3924 42.0093 37.1675C42.0093 37.5947 42.0932 38.0018 42.2444 38.3746C41.4202 37.5899 40.9075 36.4814 40.9075 35.2468C40.9075 34.7855 41.1789 33.8562 41.639 32.8438C42.099 31.8317 42.7271 30.7085 43.3585 29.6681C44.2896 28.1338 44.7964 27.4537 45.2224 26.8512L45.2223 26.8511ZM27.8314 29.4755L27.5426 30.5631C27.5426 30.5631 26.9722 32.6962 26.5322 35.1729C26.3123 36.4113 26.1234 37.7385 26.0541 38.952C25.985 40.1656 26.0068 41.2486 26.3525 42.1407C27.5376 45.1996 30.9996 46.7298 34.0584 45.5447C37.1173 44.3594 38.6472 40.8942 37.4622 37.8356C37.1166 36.9432 36.3996 36.132 35.5309 35.2819C34.6622 34.432 33.6278 33.5786 32.6309 32.8117C30.6367 31.2781 28.7808 30.085 28.7808 30.085L27.8312 29.4754L27.8314 29.4755ZM62.524 29.4755L61.5742 30.085C61.5742 30.085 59.7184 31.2781 57.7245 32.8118C56.7275 33.5788 55.693 34.432 54.8242 35.282C53.9555 36.1321 53.2419 36.9433 52.8962 37.8357C51.7112 40.8943 53.2379 44.3595 56.2967 45.5448C59.3556 46.7299 62.8208 45.1997 64.0059 42.1408C64.3517 41.2487 64.3702 40.1656 64.301 38.9521C64.2319 37.7386 64.0431 36.4115 63.8231 35.173C63.3831 32.6963 62.8125 30.5632 62.8125 30.5632L62.5238 29.4754L62.524 29.4755ZM61.4846 32.1606C61.6641 32.8757 61.8924 33.6939 62.2064 35.4617C62.4191 36.6602 62.5984 37.9352 62.6617 39.0452C62.725 40.1553 62.6393 41.1173 62.4727 41.5475C62.0274 42.6967 61.151 43.544 60.1015 43.9785C60.3753 43.6863 60.5994 43.3387 60.7529 42.9425C61.3943 41.2871 59.99 36.0146 59.99 36.0146C59.99 36.0146 55.3997 38.9645 54.7585 40.6196C54.6047 41.0165 54.5359 41.425 54.5417 41.8259C54.0579 40.797 53.9809 39.5794 54.4265 38.4291C54.5933 37.9991 55.1783 37.234 55.973 36.4564C56.7677 35.6786 57.7607 34.8565 58.7254 34.1144C60.1497 33.0188 60.8708 32.5675 61.4846 32.1606ZM28.8741 32.1638C29.4891 32.5716 30.2074 33.0203 31.6299 34.1144C32.5947 34.8565 33.5878 35.6787 34.3825 36.4564C35.1772 37.234 35.762 37.9991 35.9286 38.4291C36.3741 39.5789 36.2975 40.7962 35.8144 41.8248C35.8199 41.4242 35.7509 41.0162 35.5973 40.6198C34.9561 38.9646 30.3658 36.0147 30.3658 36.0147C30.3658 36.0147 28.9617 41.2872 29.6031 42.9425C29.7567 43.3387 29.9808 43.6865 30.2548 43.9787C29.2049 43.5443 28.3282 42.697 27.8828 41.5474C27.7161 41.1172 27.6304 40.1552 27.6936 39.0451C27.7569 37.9351 27.9395 36.66 28.1524 35.4616C28.466 33.6954 28.6944 32.8799 28.8742 32.1637L28.8741 32.1638ZM45.0718 42.9207C41.2347 42.9207 38.1012 45.4233 37.3948 48.7818C35.383 49.5371 33.5871 50.5159 32.3227 51.7943C30.9589 53.1731 30.1155 54.8564 30.1155 56.6738C30.1155 59.3857 31.9586 61.7344 34.6968 63.3532C37.4349 64.972 41.1277 65.9354 45.184 65.9354C49.2404 65.9354 52.9175 64.973 55.6425 63.3532C58.3675 61.7334 60.198 59.3823 60.198 56.6739C60.198 54.8399 59.3423 53.1417 57.9586 51.7529C56.6742 50.4633 54.8477 49.4787 52.8001 48.7274C52.0636 45.3881 48.8878 42.9208 45.0717 42.9208L45.0718 42.9207ZM45.0718 44.5631C48.332 44.5631 50.9288 46.7111 51.3277 49.3914L51.4013 49.8885L51.8795 50.0496C53.9396 50.7432 55.6397 51.752 56.7943 52.911C57.9488 54.07 58.5556 55.3456 58.5556 56.6742C58.5556 57.9864 57.9553 59.2561 56.84 60.3813C57.1608 59.7128 57.3338 59.0049 57.3338 58.2715C57.3338 56.0523 54.5558 52.5846 49.4663 51.2627C49.4815 51.1247 49.4892 50.9848 49.4892 50.8431C49.4892 48.5954 47.5489 46.7729 45.1555 46.7729C42.762 46.7729 40.8216 48.5954 40.8216 50.8431C40.8216 50.9787 40.8291 51.1125 40.8427 51.2446C35.7254 52.5565 32.978 56.0619 32.978 58.2717H32.9778C32.9778 58.9968 33.148 59.6969 33.4641 60.3585C32.3547 59.2385 31.7581 57.977 31.7581 56.6745C31.7581 55.3601 32.3538 54.099 33.4905 52.9497C34.6272 51.8002 36.3016 50.7965 38.3281 50.0977L38.8029 49.9335L38.8737 49.4331C39.2537 46.7219 41.7948 44.5631 45.0717 44.5631H45.0718Z" fill="#F27405" stroke="black" stroke-width="2.25" mask="url(#path-3-inside-1_56_250)"/>
<path d="M29.8383 39.7931C29.9392 40.0831 29.878 40.5191 29.7471 40.791C29.6742 40.9424 29.4948 41.254 29.7126 41.3833C29.7824 41.4247 29.7462 41.3129 29.7978 41.3265C29.8965 41.3525 29.9417 41.4664 30.0168 41.5212C30.192 41.649 30.1406 41.101 30.1487 40.8843C30.223 38.8775 30.1614 36.8773 29.8708 34.8886C29.8435 34.702 29.7653 34.1443 29.7653 34.3328C29.7653 34.51 29.7653 34.6871 29.7653 34.8642" stroke="#E5A76F" stroke-width="5.625" stroke-linecap="round"/>
<path d="M35.3148 40.6692C35.1319 40.2995 34.9114 39.9685 34.6576 39.647" stroke="#E5A76F" stroke-width="3.375" stroke-linecap="round"/>
<path d="M32.7228 36.2151V37.2009" stroke="#E5A76F" stroke-width="3.375" stroke-linecap="round"/>
<path d="M34.2561 37.5293C34.5374 37.7051 34.5847 38.1063 34.5847 38.4055" stroke="#E5A76F" stroke-width="3.375" stroke-linecap="round"/>
<path d="M42.4786 35.7937C42.6293 35.6582 42.5842 35.1977 42.5862 35.011C42.5873 34.9034 42.6078 34.8472 42.6519 34.7421C42.7218 34.5756 42.7591 34.4965 42.8222 34.3238C42.8364 34.285 42.8572 34.247 42.8596 34.2058C42.8673 34.0751 42.7618 34.4491 42.7251 34.5748C42.5687 35.1106 42.47 35.658 42.4189 36.2135C42.4029 36.3875 42.3843 36.5433 42.4667 36.702C42.493 36.7527 42.5366 36.7997 42.5578 36.8529C42.5639 36.8679 42.5569 36.8781 42.5638 36.817C42.5882 36.6013 42.6146 36.3858 42.64 36.1702" stroke="#E5A76F" stroke-width="3.375" stroke-linecap="round"/>
<path d="M42.1022 33.4011C42.3658 33.1315 42.6515 32.958 42.9716 32.7692C43.1578 32.6594 43.2013 32.5869 43.227 32.3703C43.3281 31.5199 43.7028 30.8183 44.2234 30.143C44.4312 29.8735 44.7466 29.5235 45.0211 29.287C45.1324 29.1912 45.1513 29.1643 45.1586 29.2841C45.1675 29.431 45.1309 29.5764 45.1167 29.7218C45.0956 29.9382 45.2436 30.2307 45.3139 30.4179C45.4289 30.724 45.5712 31.0162 45.6934 31.3187C45.8632 31.7391 45.8577 32.1844 45.8846 32.6303C45.9097 33.0476 45.9228 33.4899 46.0668 33.8881C46.1441 34.1017 46.2933 34.2781 46.3895 34.4826C46.5768 34.8808 46.7318 35.2945 46.9781 35.6628C47.279 36.1128 47.7164 36.4457 48.1104 36.807C48.2156 36.9035 48.4023 37.0216 48.3673 37.2044C48.3529 37.2802 48.1844 37.5029 48.1253 37.551C47.9343 37.7063 48.041 37.1835 48.0447 37.1387" stroke="#E5A76F" stroke-width="3.375" stroke-linecap="round"/>
<path d="M48.69 35.7134C48.6086 35.1185 48.4309 34.5098 48.1702 33.9685C47.9472 33.5057 47.6315 33.1027 47.4039 32.642C47.2376 32.3055 47.1528 31.9393 47.002 31.5963C46.8556 31.2632 46.67 30.9514 46.4583 30.6582" stroke="#E5A76F" stroke-width="3.375" stroke-linecap="round"/>
<path d="M45.2553 27.2595C45.2588 27.3621 45.265 27.4646 45.2659 27.5672C45.2666 27.6452 45.2988 27.8386 45.232 27.7985C45.1744 27.764 45.15 27.5736 45.1492 27.5142C45.1472 27.3727 45.3059 27.496 45.3402 27.529C45.5475 27.7292 45.5591 27.9687 45.6755 28.2145" stroke="#E5A76F" stroke-width="3.375" stroke-linecap="round"/>
<path d="M34.3496 58.6832C34.2566 58.753 33.7771 58.6408 33.6733 58.5741C33.5573 58.4995 33.5823 58.1362 33.5642 58.0232C33.5402 57.8732 33.525 57.4319 33.477 57.576C33.371 57.8938 33.4816 58.3456 33.4661 58.6777C33.4147 59.777 33.3193 56.477 33.1224 55.3943" stroke="#E5A76F" stroke-width="3.375" stroke-linecap="round"/>
<path d="M35.9695 52.3999C35.5717 52.5491 35.2901 53.0558 34.955 53.3271C34.7982 53.4541 34.756 53.522 34.5514 53.5616C34.3223 53.6061 34.0925 53.6389 33.8614 53.6707C33.6268 53.7031 33.8167 53.6832 33.8587 53.7253" stroke="#E5A76F" stroke-width="3.375" stroke-linecap="round"/>
<path d="M37.6877 51.5159C37.9959 51.442 38.3792 51.5151 38.6913 51.4996C39.036 51.4825 39.8822 51.5412 40.123 51.2023C40.3904 50.826 40.3715 50.6323 40.8294 50.5342" stroke="#E5A76F" stroke-width="3.375" stroke-linecap="round"/>
<path d="M40.2404 49.0125C40.6375 48.6029 40.8748 48.0978 41.3094 47.698C42.1232 46.9492 43.1933 46.3824 44.1183 45.9199" stroke="#E5A76F" stroke-width="3.375" stroke-linecap="round"/>
<path d="M45.9346 45.4292C46.2711 45.7834 46.691 45.6507 46.8563 46.2037C46.9939 46.6639 46.9577 47.1181 46.9763 47.5891C46.9992 48.1691 47.4014 48.4811 47.8435 48.7944C48.0821 48.9635 48.3427 49.1875 48.6453 48.9908C49.0582 48.7224 49.3976 47.9558 49.2371 47.4691C49.178 47.2898 48.732 47.0721 48.558 47.1964C48.477 47.2542 48.9224 48.1694 48.9398 48.2163C49.2973 49.1753 49.6578 50.4745 50.5488 51.0852C51.3128 51.6089 52.0207 52.1984 52.7523 52.7651C53.8199 53.592 52.737 52.7472 53.3905 53.2287C53.5139 53.3197 53.3532 53.2397 53.3632 53.3133C53.4088 53.6479 54.3309 54.0702 54.5522 54.1859C54.8955 54.3655 55.1431 54.4741 55.5094 54.565C55.5665 54.5792 55.8736 54.6028 55.9567 54.6632C56.3162 54.9247 56.4805 55.8259 56.5621 56.2094C56.8482 57.5541 56.618 58.9068 56.4885 60.2537" stroke="#E5A76F" stroke-width="3.375" stroke-linecap="round"/>
<path d="M58.1573 57.1122C57.856 56.8173 57.5477 56.5615 57.3501 56.1823C57.1471 55.7924 57.1312 55.2464 56.7747 54.9578C56.2328 54.5191 55.5959 54.1748 54.9885 53.8397C54.3695 53.4982 54.0894 52.9358 53.5649 52.487C53.0143 52.0159 52.2492 51.7006 51.7705 51.1535C51.6404 51.0049 51.545 50.7552 51.375 50.649C51.225 50.5552 50.9965 50.54 50.8296 50.4853C50.5377 50.3898 50.4407 50.2869 50.336 49.9999C50.2859 49.8625 50.2443 49.7948 50.1069 49.749" stroke="#E5A76F" stroke-width="3.375" stroke-linecap="round"/>
<path d="M48.0453 46.1653C48.086 46.0839 48.2595 46.1162 48.3398 46.1162" stroke="#E5A76F" stroke-width="3.375" stroke-linecap="round"/>
<path d="M49.8616 47.4419C50.3697 47.8548 50.4015 48.3622 50.4015 48.9636" stroke="#E5A76F" stroke-width="3.375" stroke-linecap="round"/>
<path d="M54.3285 51.3198C54.5588 52.3259 55.6603 52.7523 56.4884 53.1852" stroke="#E5A76F" stroke-width="3.375" stroke-linecap="round"/>
<path d="M54.726 40.2603C54.8094 39.3842 54.884 38.4949 55.4239 37.7551C56.0586 36.8855 57.0885 36.3898 58.0124 35.8923" stroke="#E5A76F" stroke-width="3.375" stroke-linecap="round"/>
<path d="M60.425 43.0891C60.425 42.9788 60.524 42.8098 60.559 42.7239C60.6861 42.4119 60.7827 42.0992 60.8595 41.7717C60.9911 41.2103 61.105 40.6556 61.1692 40.08C61.2321 39.5152 61.1487 39.0676 61.049 38.5246C60.7845 37.0846 60.4526 35.6581 60.1338 34.2283" stroke="#E5A76F" stroke-width="3.375" stroke-linecap="round"/>
<path d="M62.1309 36.8489C61.8588 36.2856 61.5106 35.7591 61.2619 35.1849C61.1069 34.827 61.1325 34.4764 61.1325 34.094C61.1325 33.8499 61.208 33.2967 61.0077 33.1465" stroke="#E5A76F" stroke-width="3.375" stroke-linecap="round"/>
</mask>
<g mask="url(#mask0_56_250)">
<rect x="5.625" y="5.625" width="39.375" height="78.75" fill="#5B74A6"/>
<rect x="45" y="5.625" width="39.375" height="78.75" fill="#375CA6"/>
</g>
</svg>
