<svg width="18" height="18" viewBox="0 0 18 18" fill="none" xmlns="http://www.w3.org/2000/svg">
<path d="M1.34299 16.6612C3.18138 18.4909 5.78285 18.4736 7.78597 16.4704L10.4395 13.8083L13.8127 10.4437L16.4663 7.79014C18.4693 5.78703 18.4867 3.18553 16.657 1.34716C14.8187 -0.482542 12.2172 -0.473884 10.2141 1.52923L7.56053 4.19145L4.18727 7.56471L1.53375 10.2095C-0.469367 12.2213 -0.486719 14.8229 1.34299 16.6612ZM13.8214 7.40861L10.5869 4.18276C10.3962 3.99199 10.2054 3.83589 10.0146 3.7145L11.1853 2.53516C12.5814 1.13904 14.4111 0.948278 15.7378 2.25767C17.0733 3.57575 16.8651 5.42281 15.469 6.81027L14.2897 7.9896C14.1683 7.79884 14.0122 7.60807 13.8214 7.40861ZM9.78912 5.23204L12.7722 8.21508C13.2665 8.70934 13.2144 9.07356 12.6941 9.58518L9.581 12.6983C9.06938 13.2186 8.70516 13.2706 8.2109 12.7763L5.22787 9.7933C4.73356 9.29899 4.78562 8.92612 5.3059 8.41454L8.41902 5.31007C8.93064 4.7898 9.29485 4.73774 9.78912 5.23204ZM8.99135 8.03297C9.41625 8.03297 9.72841 7.70346 9.72841 7.30457C9.74576 6.90565 9.40759 6.56748 9.00001 6.56748C8.59243 6.56748 8.27161 6.90565 8.27161 7.32189C8.27161 7.69476 8.60978 8.03297 8.99135 8.03297ZM7.3264 9.73259C7.71663 9.73259 8.04614 9.38572 8.04614 9.01285C8.04614 8.59661 7.71663 8.2671 7.31771 8.2671C6.90151 8.2671 6.58062 8.59661 6.58062 9.00419C6.58062 9.40307 6.89281 9.73259 7.3264 9.73259ZM10.6823 9.73259C11.0899 9.73259 11.4281 9.39441 11.4194 8.99553C11.4194 8.59661 11.0985 8.2671 10.6737 8.2671C10.2921 8.2671 9.95391 8.6053 9.95391 8.97818C9.95391 9.39441 10.2747 9.73259 10.6823 9.73259ZM9.00001 11.4235C9.40759 11.4235 9.72841 11.094 9.72841 10.6778C9.72841 10.3049 9.40759 9.95806 9.0087 9.95806C8.58377 9.95806 8.26292 10.2876 8.26292 10.6865C8.26292 11.094 8.58377 11.4235 9.00001 11.4235ZM2.26218 15.742C0.926748 14.4239 1.13487 12.5856 2.53098 11.1895L3.71032 10.0101C3.83175 10.2095 3.98781 10.4003 4.17858 10.5911L7.41309 13.8256C7.60389 14.0164 7.79466 14.1724 7.98543 14.2939L6.81478 15.4732C5.41863 16.8607 3.58893 17.0601 2.26218 15.742Z" fill="black"/>
</svg>
