<svg width="20" height="20" viewBox="0 0 20 20" fill="none" xmlns="http://www.w3.org/2000/svg">
<path d="M11.3726 13.6458L10.0798 12.4686C9.44592 11.8912 9.12892 11.6025 8.76967 11.4932C8.45325 11.3968 8.11537 11.3968 7.79898 11.4932C7.43973 11.6025 7.12275 11.8912 6.48877 12.4686L4.10033 14.6312M11.3726 13.6458L11.6358 13.4061C12.2698 12.8287 12.5868 12.54 12.946 12.4307C13.2624 12.3343 13.6003 12.3343 13.9167 12.4307C14.2759 12.54 14.5929 12.8287 15.2269 13.4061L16.1864 14.2413M11.3726 13.6458L14.2057 16.2107M14.1667 7.5C14.1667 8.4205 13.4205 9.16667 12.5 9.16667C11.5795 9.16667 10.8333 8.4205 10.8333 7.5C10.8333 6.57952 11.5795 5.83333 12.5 5.83333C13.4205 5.83333 14.1667 6.57952 14.1667 7.5ZM17.5 10C17.5 14.1422 14.1422 17.5 10 17.5C5.85787 17.5 2.5 14.1422 2.5 10C2.5 5.85787 5.85787 2.5 10 2.5C14.1422 2.5 17.5 5.85787 17.5 10Z" stroke="#D94141" stroke-width="1.58333" stroke-linecap="round" stroke-linejoin="round"/>
</svg>
