<svg width="24" height="24" viewBox="0 0 24 24" fill="none" xmlns="http://www.w3.org/2000/svg">
<g clip-path="url(#clip0_2126_408)">
<path d="M24 0H0V24H24V0Z" fill="white" fill-opacity="0.01"/>
<path d="M9.1221 11.1315C8.97585 8.65379 8.38865 7.37084 7.3604 7.28269C5.7001 7.14034 3.15513 9.85429 2.40063 13.6683C1.64613 17.4824 2.01871 20.2144 3.00599 20.3989C3.99326 20.5834 5.4278 19.5087 6.1084 19.5087C6.789 19.5087 9.1479 20.029 9.1479 19.0866C9.1479 18.6223 9.1479 17.4954 9.1479 15.0351" stroke="black" stroke-width="2.28572" stroke-linecap="round"/>
<path d="M14.8119 11.1854C14.9528 8.67239 15.541 7.37149 16.5767 7.28269C18.237 7.14034 20.782 9.85429 21.5365 13.6683C22.291 17.4824 21.9184 20.2144 20.9311 20.3989C19.9438 20.5834 18.5093 19.5087 17.8287 19.5087C17.1481 19.5087 14.7892 20.029 14.7892 19.0866C14.7892 18.6233 14.7892 17.4851 14.7892 15.0351" stroke="black" stroke-width="2.28572" stroke-linecap="round"/>
<path d="M10.2779 2.50003V9.95531C10.2561 11.1011 9.30002 11.674 7.40967 11.674" stroke="black" stroke-width="2.28572" stroke-linecap="round"/>
<path d="M13.646 2.50003V9.95531C13.6677 11.1011 14.6238 11.674 16.5141 11.674" stroke="black" stroke-width="2.28572" stroke-linecap="round"/>
<path d="M7.5 15.0352C9.47765 15.0352 10.9776 14.5656 12 13.6263C13.0297 14.5656 14.5345 15.0352 16.5143 15.0352" stroke="black" stroke-width="2.28572" stroke-linecap="round" stroke-linejoin="round"/>
</g>
<defs>
<clipPath id="clip0_2126_408">
<rect width="24" height="24" fill="white"/>
</clipPath>
</defs>
</svg>
