<svg width="90" height="90" viewBox="0 0 90 90" fill="none" xmlns="http://www.w3.org/2000/svg">
<path fill-rule="evenodd" clip-rule="evenodd" d="M12.6657 19.0593C11.25 21.0763 11.25 27.0718 11.25 39.0629V44.968C11.25 66.1105 27.1461 76.3709 37.1196 80.7276C39.825 81.9092 41.1776 82.5002 45 82.5002V7.50024C41.9573 7.50024 39.0187 8.50614 33.1414 10.5179L30.9934 11.2532C19.7187 15.1126 14.0814 17.0423 12.6657 19.0593Z" fill="#375CA6"/>
<path opacity="0.5" d="M78.75 44.968V39.0629C78.75 27.0718 78.75 21.0763 77.3344 19.0593C75.9187 17.0423 70.2814 15.1126 59.0066 11.2532L56.8586 10.5179C50.9813 8.50614 48.0427 7.50024 45 7.50024V82.5002C48.8224 82.5002 50.175 81.9092 52.8803 80.7276C62.8538 76.3709 78.75 66.1105 78.75 44.968Z" fill="#375CA6"/>
<mask id="mask0_56_250" style="mask-type:alpha" maskUnits="userSpaceOnUse" x="22" y="23" width="45" height="45">
<mask id="path-3-inside-1_56_250" fill="white">
<path d="M44.7223 24.4702L44.0584 25.3814C44.0584 25.3814 42.7585 27.1638 41.4534 29.3145C40.8009 30.3899 40.1438 31.5572 39.6409 32.6638C39.138 33.7702 38.765 34.7897 38.765 35.7467C38.765 39.027 41.442 41.7042 44.7223 41.7042C48.003 41.7042 50.6799 39.027 50.6799 35.7468C50.6799 34.7898 50.307 33.7703 49.8041 32.6639C49.3011 31.5574 48.6473 30.39 47.9948 29.3146C46.6896 27.1639 45.3866 25.3815 45.3866 25.3815L44.7224 24.4703L44.7223 24.4702ZM44.7223 27.3511C45.1484 27.9534 45.6583 28.6336 46.5895 30.168C47.221 31.2084 47.849 32.3316 48.3091 33.3437C48.7692 34.3561 49.0373 35.2854 49.0373 35.7467C49.0373 36.9798 48.5261 38.0869 47.7038 38.8714C47.8543 38.4995 47.9378 38.0933 47.9378 37.6675C47.9378 35.8924 44.7236 31.4832 44.7236 31.4832C44.7236 31.4832 41.5093 35.8924 41.5093 37.6675C41.5093 38.0947 41.5932 38.5018 41.7444 38.8746C40.9202 38.0899 40.4075 36.9814 40.4075 35.7468C40.4075 35.2855 40.6789 34.3562 41.139 33.3438C41.599 32.3317 42.2271 31.2085 42.8585 30.1681C43.7896 28.6338 44.2964 27.9537 44.7224 27.3512L44.7223 27.3511ZM27.3314 29.9755L27.0426 31.0631C27.0426 31.0631 26.4722 33.1962 26.0322 35.6729C25.8123 36.9113 25.6234 38.2385 25.5541 39.452C25.485 40.6656 25.5068 41.7486 25.8525 42.6407C27.0376 45.6996 30.4996 47.2298 33.5584 46.0447C36.6173 44.8594 38.1472 41.3942 36.9622 38.3356C36.6166 37.4432 35.8996 36.632 35.0309 35.7819C34.1622 34.932 33.1278 34.0786 32.1309 33.3117C30.1367 31.7781 28.2808 30.585 28.2808 30.585L27.3312 29.9754L27.3314 29.9755ZM62.024 29.9755L61.0742 30.585C61.0742 30.585 59.2184 31.7781 57.2245 33.3118C56.2275 34.0788 55.193 34.932 54.3242 35.782C53.4555 36.6321 52.7419 37.4433 52.3962 38.3357C51.2112 41.3943 52.7379 44.8595 55.7967 46.0448C58.8556 47.2299 62.3208 45.6997 63.5059 42.6408C63.8517 41.7487 63.8702 40.6656 63.801 39.4521C63.7319 38.2386 63.5431 36.9115 63.3231 35.673C62.8831 33.1963 62.3125 31.0632 62.3125 31.0632L62.0238 29.9754L62.024 29.9755ZM60.9846 32.6606C61.1641 33.3757 61.3924 34.1939 61.7064 35.9617C61.9191 37.1602 62.0984 38.4352 62.1617 39.5452C62.225 40.6553 62.1393 41.6173 61.9727 42.0475C61.5274 43.1967 60.651 44.044 59.6015 44.4785C59.8753 44.1863 60.0994 43.8387 60.2529 43.4425C60.8943 41.7871 59.49 36.5146 59.49 36.5146C59.49 36.5146 54.8997 39.4645 54.2585 41.1196C54.1047 41.5165 54.0359 41.925 54.0417 42.3259C53.5579 41.297 53.4809 40.0794 53.9265 38.9291C54.0933 38.4991 54.6783 37.734 55.473 36.9564C56.2677 36.1786 57.2607 35.3565 58.2254 34.6144C59.6497 33.5188 60.3708 33.0675 60.9846 32.6606ZM28.3741 32.6638C28.9891 33.0716 29.7074 33.5203 31.1299 34.6144C32.0947 35.3565 33.0878 36.1787 33.8825 36.9564C34.6772 37.734 35.262 38.4991 35.4286 38.9291C35.8741 40.0789 35.7975 41.2962 35.3144 42.3248C35.3199 41.9242 35.2509 41.5162 35.0973 41.1198C34.4561 39.4646 29.8658 36.5147 29.8658 36.5147C29.8658 36.5147 28.4617 41.7872 29.1031 43.4425C29.2567 43.8387 29.4808 44.1865 29.7548 44.4787C28.7049 44.0443 27.8282 43.197 27.3828 42.0474C27.2161 41.6172 27.1304 40.6552 27.1936 39.5451C27.2569 38.4351 27.4395 37.16 27.6524 35.9616C27.966 34.1954 28.1944 33.3799 28.3742 32.6637L28.3741 32.6638ZM44.5718 43.4207C40.7347 43.4207 37.6012 45.9233 36.8948 49.2818C34.883 50.0371 33.0871 51.0159 31.8227 52.2943C30.4589 53.6731 29.6155 55.3564 29.6155 57.1738C29.6155 59.8857 31.4586 62.2344 34.1968 63.8532C36.9349 65.472 40.6277 66.4354 44.684 66.4354C48.7404 66.4354 52.4175 65.473 55.1425 63.8532C57.8675 62.2334 59.698 59.8823 59.698 57.1739C59.698 55.3399 58.8423 53.6417 57.4586 52.2529C56.1742 50.9633 54.3477 49.9787 52.3001 49.2274C51.5636 45.8881 48.3878 43.4208 44.5717 43.4208L44.5718 43.4207ZM44.5718 45.0631C47.832 45.0631 50.4288 47.2111 50.8277 49.8914L50.9013 50.3885L51.3795 50.5496C53.4396 51.2432 55.1397 52.252 56.2943 53.411C57.4488 54.57 58.0556 55.8456 58.0556 57.1742C58.0556 58.4864 57.4553 59.7561 56.34 60.8813C56.6608 60.2128 56.8338 59.5049 56.8338 58.7715C56.8338 56.5523 54.0558 53.0846 48.9663 51.7627C48.9815 51.6247 48.9892 51.4848 48.9892 51.3431C48.9892 49.0954 47.0489 47.2729 44.6555 47.2729C42.262 47.2729 40.3216 49.0954 40.3216 51.3431C40.3216 51.4787 40.3291 51.6125 40.3427 51.7446C35.2254 53.0565 32.478 56.5619 32.478 58.7717H32.4778C32.4778 59.4968 32.648 60.1969 32.9641 60.8585C31.8547 59.7385 31.2581 58.477 31.2581 57.1745C31.2581 55.8601 31.8538 54.599 32.9905 53.4497C34.1272 52.3002 35.8016 51.2965 37.8281 50.5977L38.3029 50.4335L38.3737 49.9331C38.7537 47.2219 41.2948 45.0631 44.5717 45.0631H44.5718Z"/>
</mask>
<path d="M44.7223 24.4702L44.0584 25.3814C44.0584 25.3814 42.7585 27.1638 41.4534 29.3145C40.8009 30.3899 40.1438 31.5572 39.6409 32.6638C39.138 33.7702 38.765 34.7897 38.765 35.7467C38.765 39.027 41.442 41.7042 44.7223 41.7042C48.003 41.7042 50.6799 39.027 50.6799 35.7468C50.6799 34.7898 50.307 33.7703 49.8041 32.6639C49.3011 31.5574 48.6473 30.39 47.9948 29.3146C46.6896 27.1639 45.3866 25.3815 45.3866 25.3815L44.7224 24.4703L44.7223 24.4702ZM44.7223 27.3511C45.1484 27.9534 45.6583 28.6336 46.5895 30.168C47.221 31.2084 47.849 32.3316 48.3091 33.3437C48.7692 34.3561 49.0373 35.2854 49.0373 35.7467C49.0373 36.9798 48.5261 38.0869 47.7038 38.8714C47.8543 38.4995 47.9378 38.0933 47.9378 37.6675C47.9378 35.8924 44.7236 31.4832 44.7236 31.4832C44.7236 31.4832 41.5093 35.8924 41.5093 37.6675C41.5093 38.0947 41.5932 38.5018 41.7444 38.8746C40.9202 38.0899 40.4075 36.9814 40.4075 35.7468C40.4075 35.2855 40.6789 34.3562 41.139 33.3438C41.599 32.3317 42.2271 31.2085 42.8585 30.1681C43.7896 28.6338 44.2964 27.9537 44.7224 27.3512L44.7223 27.3511ZM27.3314 29.9755L27.0426 31.0631C27.0426 31.0631 26.4722 33.1962 26.0322 35.6729C25.8123 36.9113 25.6234 38.2385 25.5541 39.452C25.485 40.6656 25.5068 41.7486 25.8525 42.6407C27.0376 45.6996 30.4996 47.2298 33.5584 46.0447C36.6173 44.8594 38.1472 41.3942 36.9622 38.3356C36.6166 37.4432 35.8996 36.632 35.0309 35.7819C34.1622 34.932 33.1278 34.0786 32.1309 33.3117C30.1367 31.7781 28.2808 30.585 28.2808 30.585L27.3312 29.9754L27.3314 29.9755ZM62.024 29.9755L61.0742 30.585C61.0742 30.585 59.2184 31.7781 57.2245 33.3118C56.2275 34.0788 55.193 34.932 54.3242 35.782C53.4555 36.6321 52.7419 37.4433 52.3962 38.3357C51.2112 41.3943 52.7379 44.8595 55.7967 46.0448C58.8556 47.2299 62.3208 45.6997 63.5059 42.6408C63.8517 41.7487 63.8702 40.6656 63.801 39.4521C63.7319 38.2386 63.5431 36.9115 63.3231 35.673C62.8831 33.1963 62.3125 31.0632 62.3125 31.0632L62.0238 29.9754L62.024 29.9755ZM60.9846 32.6606C61.1641 33.3757 61.3924 34.1939 61.7064 35.9617C61.9191 37.1602 62.0984 38.4352 62.1617 39.5452C62.225 40.6553 62.1393 41.6173 61.9727 42.0475C61.5274 43.1967 60.651 44.044 59.6015 44.4785C59.8753 44.1863 60.0994 43.8387 60.2529 43.4425C60.8943 41.7871 59.49 36.5146 59.49 36.5146C59.49 36.5146 54.8997 39.4645 54.2585 41.1196C54.1047 41.5165 54.0359 41.925 54.0417 42.3259C53.5579 41.297 53.4809 40.0794 53.9265 38.9291C54.0933 38.4991 54.6783 37.734 55.473 36.9564C56.2677 36.1786 57.2607 35.3565 58.2254 34.6144C59.6497 33.5188 60.3708 33.0675 60.9846 32.6606ZM28.3741 32.6638C28.9891 33.0716 29.7074 33.5203 31.1299 34.6144C32.0947 35.3565 33.0878 36.1787 33.8825 36.9564C34.6772 37.734 35.262 38.4991 35.4286 38.9291C35.8741 40.0789 35.7975 41.2962 35.3144 42.3248C35.3199 41.9242 35.2509 41.5162 35.0973 41.1198C34.4561 39.4646 29.8658 36.5147 29.8658 36.5147C29.8658 36.5147 28.4617 41.7872 29.1031 43.4425C29.2567 43.8387 29.4808 44.1865 29.7548 44.4787C28.7049 44.0443 27.8282 43.197 27.3828 42.0474C27.2161 41.6172 27.1304 40.6552 27.1936 39.5451C27.2569 38.4351 27.4395 37.16 27.6524 35.9616C27.966 34.1954 28.1944 33.3799 28.3742 32.6637L28.3741 32.6638ZM44.5718 43.4207C40.7347 43.4207 37.6012 45.9233 36.8948 49.2818C34.883 50.0371 33.0871 51.0159 31.8227 52.2943C30.4589 53.6731 29.6155 55.3564 29.6155 57.1738C29.6155 59.8857 31.4586 62.2344 34.1968 63.8532C36.9349 65.472 40.6277 66.4354 44.684 66.4354C48.7404 66.4354 52.4175 65.473 55.1425 63.8532C57.8675 62.2334 59.698 59.8823 59.698 57.1739C59.698 55.3399 58.8423 53.6417 57.4586 52.2529C56.1742 50.9633 54.3477 49.9787 52.3001 49.2274C51.5636 45.8881 48.3878 43.4208 44.5717 43.4208L44.5718 43.4207ZM44.5718 45.0631C47.832 45.0631 50.4288 47.2111 50.8277 49.8914L50.9013 50.3885L51.3795 50.5496C53.4396 51.2432 55.1397 52.252 56.2943 53.411C57.4488 54.57 58.0556 55.8456 58.0556 57.1742C58.0556 58.4864 57.4553 59.7561 56.34 60.8813C56.6608 60.2128 56.8338 59.5049 56.8338 58.7715C56.8338 56.5523 54.0558 53.0846 48.9663 51.7627C48.9815 51.6247 48.9892 51.4848 48.9892 51.3431C48.9892 49.0954 47.0489 47.2729 44.6555 47.2729C42.262 47.2729 40.3216 49.0954 40.3216 51.3431C40.3216 51.4787 40.3291 51.6125 40.3427 51.7446C35.2254 53.0565 32.478 56.5619 32.478 58.7717H32.4778C32.4778 59.4968 32.648 60.1969 32.9641 60.8585C31.8547 59.7385 31.2581 58.477 31.2581 57.1745C31.2581 55.8601 31.8538 54.599 32.9905 53.4497C34.1272 52.3002 35.8016 51.2965 37.8281 50.5977L38.3029 50.4335L38.3737 49.9331C38.7537 47.2219 41.2948 45.0631 44.5717 45.0631H44.5718Z" fill="#F27405" stroke="black" stroke-width="2.25" mask="url(#path-3-inside-1_56_250)"/>
<path d="M29.3383 40.2931C29.4392 40.5831 29.378 41.0191 29.2471 41.291C29.1742 41.4424 28.9948 41.754 29.2126 41.8833C29.2824 41.9247 29.2462 41.8129 29.2978 41.8265C29.3965 41.8525 29.4417 41.9664 29.5168 42.0212C29.692 42.149 29.6406 41.601 29.6487 41.3843C29.723 39.3775 29.6614 37.3773 29.3708 35.3886C29.3435 35.202 29.2653 34.6443 29.2653 34.8328C29.2653 35.01 29.2653 35.1871 29.2653 35.3642" stroke="#E5A76F" stroke-width="5.625" stroke-linecap="round"/>
<path d="M34.8148 41.1692C34.6319 40.7995 34.4114 40.4685 34.1576 40.147" stroke="#E5A76F" stroke-width="3.375" stroke-linecap="round"/>
<path d="M32.2228 36.7151V37.7009" stroke="#E5A76F" stroke-width="3.375" stroke-linecap="round"/>
<path d="M33.7561 38.0293C34.0374 38.2051 34.0847 38.6063 34.0847 38.9055" stroke="#E5A76F" stroke-width="3.375" stroke-linecap="round"/>
<path d="M41.9786 36.2937C42.1293 36.1582 42.0842 35.6977 42.0862 35.511C42.0873 35.4034 42.1078 35.3472 42.1519 35.2421C42.2218 35.0756 42.2591 34.9965 42.3222 34.8238C42.3364 34.785 42.3572 34.747 42.3596 34.7058C42.3673 34.5751 42.2618 34.9491 42.2251 35.0748C42.0687 35.6106 41.97 36.158 41.9189 36.7135C41.9029 36.8875 41.8843 37.0433 41.9667 37.202C41.993 37.2527 42.0366 37.2997 42.0578 37.3529C42.0639 37.3679 42.0569 37.3781 42.0638 37.317C42.0882 37.1013 42.1146 36.8858 42.14 36.6702" stroke="#E5A76F" stroke-width="3.375" stroke-linecap="round"/>
<path d="M41.6022 33.9011C41.8658 33.6315 42.1515 33.458 42.4716 33.2692C42.6578 33.1594 42.7013 33.0869 42.727 32.8703C42.8281 32.0199 43.2028 31.3183 43.7234 30.643C43.9312 30.3735 44.2466 30.0235 44.5211 29.787C44.6324 29.6912 44.6513 29.6643 44.6586 29.7841C44.6675 29.931 44.6309 30.0764 44.6167 30.2218C44.5956 30.4382 44.7436 30.7307 44.8139 30.9179C44.9289 31.224 45.0712 31.5162 45.1934 31.8187C45.3632 32.2391 45.3577 32.6844 45.3846 33.1303C45.4097 33.5476 45.4228 33.9899 45.5668 34.3881C45.6441 34.6017 45.7933 34.7781 45.8895 34.9826C46.0768 35.3808 46.2318 35.7945 46.4781 36.1628C46.779 36.6128 47.2164 36.9457 47.6104 37.307C47.7156 37.4035 47.9023 37.5216 47.8673 37.7044C47.8529 37.7802 47.6844 38.0029 47.6253 38.051C47.4343 38.2063 47.541 37.6835 47.5447 37.6387" stroke="#E5A76F" stroke-width="3.375" stroke-linecap="round"/>
<path d="M48.19 36.2134C48.1086 35.6185 47.9309 35.0098 47.6702 34.4685C47.4472 34.0057 47.1315 33.6027 46.9039 33.142C46.7376 32.8055 46.6528 32.4393 46.502 32.0963C46.3556 31.7632 46.17 31.4514 45.9583 31.1582" stroke="#E5A76F" stroke-width="3.375" stroke-linecap="round"/>
<path d="M44.7553 27.7595C44.7588 27.8621 44.765 27.9646 44.7659 28.0672C44.7666 28.1452 44.7988 28.3386 44.732 28.2985C44.6744 28.264 44.65 28.0736 44.6492 28.0142C44.6472 27.8727 44.8059 27.996 44.8402 28.029C45.0475 28.2292 45.0591 28.4687 45.1755 28.7145" stroke="#E5A76F" stroke-width="3.375" stroke-linecap="round"/>
<path d="M33.8496 59.1832C33.7566 59.253 33.2771 59.1408 33.1733 59.0741C33.0573 58.9995 33.0823 58.6362 33.0642 58.5232C33.0402 58.3732 33.025 57.9319 32.977 58.076C32.871 58.3938 32.9816 58.8456 32.9661 59.1777C32.9147 60.277 32.8193 56.977 32.6224 55.8943" stroke="#E5A76F" stroke-width="3.375" stroke-linecap="round"/>
<path d="M35.4695 52.8999C35.0717 53.0491 34.7901 53.5558 34.455 53.8271C34.2982 53.9541 34.256 54.022 34.0514 54.0616C33.8223 54.1061 33.5925 54.1389 33.3614 54.1707C33.1268 54.2031 33.3167 54.1832 33.3587 54.2253" stroke="#E5A76F" stroke-width="3.375" stroke-linecap="round"/>
<path d="M37.1877 52.0159C37.4959 51.942 37.8792 52.0151 38.1913 51.9996C38.536 51.9825 39.3822 52.0412 39.623 51.7023C39.8904 51.326 39.8715 51.1323 40.3294 51.0342" stroke="#E5A76F" stroke-width="3.375" stroke-linecap="round"/>
<path d="M39.7404 49.5125C40.1375 49.1029 40.3748 48.5978 40.8094 48.198C41.6232 47.4492 42.6933 46.8824 43.6183 46.4199" stroke="#E5A76F" stroke-width="3.375" stroke-linecap="round"/>
<path d="M45.4346 45.9292C45.7711 46.2834 46.191 46.1507 46.3563 46.7037C46.4939 47.1639 46.4577 47.6181 46.4763 48.0891C46.4992 48.6691 46.9014 48.9811 47.3435 49.2944C47.5821 49.4635 47.8427 49.6875 48.1453 49.4908C48.5582 49.2224 48.8976 48.4558 48.7371 47.9691C48.678 47.7898 48.232 47.5721 48.058 47.6964C47.977 47.7542 48.4224 48.6694 48.4398 48.7163C48.7973 49.6753 49.1578 50.9745 50.0488 51.5852C50.8128 52.1089 51.5207 52.6984 52.2523 53.2651C53.3199 54.092 52.237 53.2472 52.8905 53.7287C53.0139 53.8197 52.8532 53.7397 52.8632 53.8133C52.9088 54.1479 53.8309 54.5702 54.0522 54.6859C54.3955 54.8655 54.6431 54.9741 55.0094 55.065C55.0665 55.0792 55.3736 55.1028 55.4567 55.1632C55.8162 55.4247 55.9805 56.3259 56.0621 56.7094C56.3482 58.0541 56.118 59.4068 55.9885 60.7537" stroke="#E5A76F" stroke-width="3.375" stroke-linecap="round"/>
<path d="M57.6573 57.6122C57.356 57.3173 57.0477 57.0615 56.8501 56.6823C56.6471 56.2924 56.6312 55.7464 56.2747 55.4578C55.7328 55.0191 55.0959 54.6748 54.4885 54.3397C53.8695 53.9982 53.5894 53.4358 53.0649 52.987C52.5143 52.5159 51.7492 52.2006 51.2705 51.6535C51.1404 51.5049 51.045 51.2552 50.875 51.149C50.725 51.0552 50.4965 51.04 50.3296 50.9853C50.0377 50.8898 49.9407 50.7869 49.836 50.4999C49.7859 50.3625 49.7443 50.2948 49.6069 50.249" stroke="#E5A76F" stroke-width="3.375" stroke-linecap="round"/>
<path d="M47.5453 46.6653C47.586 46.5839 47.7595 46.6162 47.8398 46.6162" stroke="#E5A76F" stroke-width="3.375" stroke-linecap="round"/>
<path d="M49.3616 47.9419C49.8697 48.3548 49.9015 48.8622 49.9015 49.4636" stroke="#E5A76F" stroke-width="3.375" stroke-linecap="round"/>
<path d="M53.8285 51.8198C54.0588 52.8259 55.1603 53.2523 55.9884 53.6852" stroke="#E5A76F" stroke-width="3.375" stroke-linecap="round"/>
<path d="M54.226 40.7603C54.3094 39.8842 54.384 38.9949 54.9239 38.2551C55.5586 37.3855 56.5885 36.8898 57.5124 36.3923" stroke="#E5A76F" stroke-width="3.375" stroke-linecap="round"/>
<path d="M59.925 43.5891C59.925 43.4788 60.024 43.3098 60.059 43.2239C60.1861 42.9119 60.2827 42.5992 60.3595 42.2717C60.4911 41.7103 60.605 41.1556 60.6692 40.58C60.7321 40.0152 60.6487 39.5676 60.549 39.0246C60.2845 37.5846 59.9526 36.1581 59.6338 34.7283" stroke="#E5A76F" stroke-width="3.375" stroke-linecap="round"/>
<path d="M61.6309 37.3489C61.3588 36.7856 61.0106 36.2591 60.7619 35.6849C60.6069 35.327 60.6325 34.9764 60.6325 34.594C60.6325 34.3499 60.708 33.7967 60.5077 33.6465" stroke="#E5A76F" stroke-width="3.375" stroke-linecap="round"/>
</mask>
<g mask="url(#mask0_56_250)">
<rect x="5.625" y="5.625" width="39.375" height="78.75" fill="#5B74A6"/>
<rect x="45" y="5.625" width="39.375" height="78.75" fill="#375CA6"/>
</g>
</svg>
